SplineFontDB: 3.2
FontName: QuikDotSans
FullName: QuikDot Sans
FamilyName: QuikDot Sans
Weight: Book
Copyright: Dotsies glyphs created by @refola, 2020-05-11.\nVersion 0.9.\n\nBased on Quikscript Sans, with:\nGlyphs created by Alternate Script Bureau, 2017-11-03\nVersion 1.4.1.1 created on 2019-03-13
Version: 0.9
ItalicAngle: 0
UnderlinePosition: -188
UnderlineWidth: 48
Ascent: 1638
Descent: 410
InvalidEm: 0
sfntRevision: 0x00010000
LayerCount: 2
Layer: 0 1 "Back" 1
Layer: 1 1 "Fore" 0
XUID: [1021 578 453645874 15151264]
StyleMap: 0x0040
FSType: 4
OS2Version: 1
OS2_WeightWidthSlopeOnly: 0
OS2_UseTypoMetrics: 1
CreationTime: 1152836617
ModificationTime: 1589266647
PfmFamily: 17
TTFWeight: 400
TTFWidth: 5
LineGap: 0
VLineGap: 0
Panose: 2 0 0 0 0 0 0 0 0 0
OS2TypoAscent: 1900
OS2TypoAOffset: 0
OS2TypoDescent: -600
OS2TypoDOffset: 0
OS2TypoLinegap: 0
OS2WinAscent: 1900
OS2WinAOffset: 0
OS2WinDescent: 600
OS2WinDOffset: 0
HheadAscent: 1900
HheadAOffset: 0
HheadDescent: -600
HheadDOffset: 0
OS2SubXSize: 1434
OS2SubYSize: 1331
OS2SubXOff: 0
OS2SubYOff: 283
OS2SupXSize: 1434
OS2SupYSize: 1331
OS2SupXOff: 0
OS2SupYOff: 977
OS2StrikeYSize: 102
OS2StrikeYPos: 530
OS2Vendor: 'HL  '
OS2CodePages: 00000001.00000000
OS2UnicodeRanges: 80000003.10000000.00000000.00000000
Lookup: 4 0 1 "'liga' Standard Ligatures lookup 0" { "'liga' Standard Ligatures lookup 0-1"  } ['liga' ('DFLT' <'dflt' > ) ]
Lookup: 258 0 0 "'kern' Horizontal Kerning lookup 0" { "kerning_table" [307,30,2] } ['kern' ('DFLT' <'dflt' > ) ]
MarkAttachClasses: 1
DEI: 91125
ShortTable: cvt  2
  68
  1297
EndShort
ShortTable: maxp 16
  1
  0
  67
  32
  2
  0
  0
  2
  8
  64
  10
  0
  82
  46
  0
  0
EndShort

StartChar: .notdef
Encoding: 65536 -1 0
Width: 748
Flags: W
HStem: 0 68<136 544> 1297 68<136 544>
VStem: 68 68<68 1297> 544 68<68 1297>
LayerCount: 2
Fore
SplineSet
68 0 m 1,0,-1
 68 1365 l 1,1,-1
 612 1365 l 1,2,-1
 612 0 l 1,3,-1
 68 0 l 1,0,-1
136 68 m 1,4,-1
 544 68 l 1,5,-1
 544 1297 l 1,6,-1
 136 1297 l 1,7,-1
 136 68 l 1,4,-1
EndSplineSet
Validated: 1
EndChar

StartChar: uniE650
Encoding: 58960 58960 19
Width: 751
VWidth: 1997
GlyphClass: 2
Flags: W
HStem: 0 21G<441 601> 1456 160<308.502 392.467>
VStem: 100 159<1109 1295> 441 160<0 1435.34>
LayerCount: 2
Fore
SplineSet
350 1616 m 0,0,1
 393 1616 393 1616 436 1598 c 0,2,3
 475 1582 475 1582 505 1552 c 0,4,5
 549 1508 549 1508 575 1433 c 0,6,7
 585 1403 585 1403 593 1360 c 0,8,9
 600 1321 600 1321 600 1301 c 2,10,-1
 601 1280 l 1,11,-1
 601 0 l 1,12,-1
 441 0 l 1,13,-1
 441 1280 l 2,14,15
 440 1332 440 1332 424 1383 c 0,16,17
 411 1424 411 1424 393 1440 c 0,18,19
 376 1455 376 1455 350 1456 c 128,-1,20
 324 1457 324 1457 308 1440 c 0,21,22
 291 1422 291 1422 277 1383 c 0,23,24
 269 1362 269 1362 265 1335 c 0,25,26
 261 1310 261 1310 260 1295 c 2,27,-1
 259 1280 l 1,28,-1
 259 1109 l 1,29,-1
 100 1109 l 1,30,-1
 100 1280 l 2,31,32
 100 1283 100 1283 100 1286 c 128,-1,33
 100 1289 100 1289 100 1291 c 0,34,35
 100 1296 l 0,36,37
 100 1300 100 1300 100 1301 c 0,38,39
 100 1303 100 1303 100 1305 c 128,-1,40
 100 1307 100 1307 100 1309 c 128,-1,41
 100 1311 100 1311 100 1313 c 128,-1,42
 100 1315 100 1315 100 1316 c 0,43,44
 100 1360 100 1360 125 1433 c 0,45,46
 150 1507 150 1507 195 1552 c 0,47,48
 224 1581 224 1581 264 1598 c 0,49,50
 305 1616 305 1616 350 1616 c 0,0,1
EndSplineSet
Validated: 1
EndChar

StartChar: uniE651
Encoding: 58961 58961 20
Width: 834
VWidth: 1997
GlyphClass: 2
Flags: W
HStem: -421 159<284.118 416.112> 6 159<285.088 441 601 734>
VStem: 100 159<-238.884 -15.8613> 441 160<-240.75 6 165 1195>
LayerCount: 2
Fore
SplineSet
441 1195 m 1,0,-1
 601 1195 l 1,1,-1
 601 165 l 1,2,-1
 734 165 l 1,3,-1
 734 6 l 1,4,-1
 601 6 l 1,5,-1
 601 -128 l 2,6,7
 601 -250 601 -250 528 -335 c 0,8,9
 454 -421 454 -421 350 -421 c 0,10,11
 245 -421 245 -421 173 -336 c 0,12,13
 100 -250 100 -250 100 -128 c 0,14,15
 100 -7 100 -7 173 79 c 128,-1,16
 246 165 246 165 350 165 c 2,17,-1
 441 165 l 1,18,-1
 441 1195 l 1,0,-1
350 6 m 2,19,20
 322 6 322 6 290 -30 c 0,21,22
 259 -65 259 -65 259 -128 c 0,23,24
 259 -189 259 -189 290 -226 c 0,25,26
 320 -262 320 -262 350 -262 c 128,-1,27
 380 -262 380 -262 411 -226 c 0,28,29
 441 -191 441 -191 441 -128 c 2,30,-1
 441 6 l 1,31,-1
 350 6 l 2,19,20
EndSplineSet
Validated: 1
EndChar

StartChar: uniE652
Encoding: 58962 58962 21
Width: 459
VWidth: 1997
GlyphClass: 2
Flags: W
HStem: 0 21G<150 309>
VStem: 150 159<0 1621>
LayerCount: 2
Fore
SplineSet
150 1621 m 1,0,-1
 309 1621 l 1,1,-1
 309 0 l 1,2,-1
 150 0 l 1,3,-1
 150 1621 l 1,0,-1
EndSplineSet
Validated: 1
EndChar

StartChar: uniE653
Encoding: 58963 58963 22
Width: 740
VWidth: 1997
GlyphClass: 2
Flags: W
VStem: 150 159<-127 1195>
LayerCount: 2
Fore
SplineSet
150 1195 m 1,0,-1
 309 1195 l 1,1,-1
 309 -127 l 1,2,-1
 502 210 l 1,3,-1
 640 131 l 1,4,-1
 299 -466 l 1,5,-1
 150 -427 l 1,6,-1
 150 1195 l 1,0,-1
EndSplineSet
Validated: 1
EndChar

StartChar: uniE654
Encoding: 58964 58964 23
Width: 805
VWidth: 1997
GlyphClass: 2
Flags: W
HStem: 6 159<382.51 692>
VStem: 100 159<326.852 868.148>
LayerCount: 2
Fore
SplineSet
236 1635 m 1,0,-1
 705 1166 l 1,1,-1
 649 1030 l 1,2,-1
 521 1030 l 2,3,4
 448 1030 448 1030 403 1001 c 128,-1,5
 358 972 358 972 324 911 c 0,6,7
 259 795 259 795 259 597.5 c 128,-1,8
 259 400 259 400 324 284 c 0,9,10
 358 223 358 223 403 194 c 128,-1,11
 448 165 448 165 521 165 c 2,12,-1
 692 165 l 1,13,-1
 692 6 l 1,14,-1
 521 6 l 2,15,16
 410 6 410 6 322.5 61 c 128,-1,17
 235 116 235 116 185 207 c 0,18,19
 100 359 100 359 100 597.5 c 128,-1,20
 100 836 100 836 185 988 c 0,21,22
 228 1065 228 1065 299 1117.5 c 128,-1,23
 370 1170 370 1170 461 1184 c 1,24,-1
 123 1522 l 1,25,-1
 236 1635 l 1,0,-1
EndSplineSet
Validated: 1
EndChar

StartChar: uniE655
Encoding: 58965 58965 24
Width: 834
VWidth: 1963
GlyphClass: 2
Flags: W
HStem: -427 160<284.878 501.091> 0 159<650 734> 1024 159<382.51 734>
VStem: 100 159<-243.841 -25.6633 387.856 862.188> 527 159<-243.153 -34.6724>
LayerCount: 2
Fore
SplineSet
393 0 m 2,0,1
 348 0 348 0 325 -11 c 128,-1,2
 302 -22 302 -22 286 -43 c 0,3,4
 259 -79 259 -79 259 -134 c 128,-1,5
 259 -189 259 -189 286 -225 c 0,6,7
 296 -239 296 -239 307 -247 c 128,-1,8
 318 -255 318 -255 340 -261 c 128,-1,9
 362 -267 362 -267 393 -267 c 0,10,11
 438 -267 438 -267 461 -256.5 c 128,-1,12
 484 -246 484 -246 500 -225 c 0,13,14
 526 -190 526 -190 527 -135 c 0,15,16
 526 -106 526 -106 514.5 -81.5 c 128,-1,17
 503 -57 503 -57 477 -28 c 0,18,19
 467 -16 467 -16 451 0 c 1,20,-1
 393 0 l 2,0,1
521 1183 m 2,21,-1
 734 1183 l 1,22,-1
 734 1024 l 1,23,-1
 521 1024 l 2,24,25
 448 1024 448 1024 403 995 c 128,-1,26
 358 966 358 966 324 905 c 0,27,28
 259 789 259 789 259 592 c 0,29,30
 259 525 259 525 272.5 469.5 c 128,-1,31
 286 414 286 414 315 369 c 128,-1,32
 344 324 344 324 372 293 c 128,-1,33
 400 262 400 262 445 221 c 0,34,35
 455 212 455 212 466.5 201.5 c 128,-1,36
 478 191 478 191 491.5 179 c 128,-1,37
 505 167 505 167 514 159 c 1,38,-1
 734 159 l 1,39,-1
 734 0 l 1,40,-1
 650 0 l 1,41,42
 684 -65 684 -65 686 -132 c 2,43,-1
 686 -133 l 1,44,-1
 686 -134 l 2,45,46
 686 -242 686 -242 627 -320 c 0,47,48
 591 -368 591 -368 530 -397.5 c 128,-1,49
 469 -427 469 -427 393 -427 c 128,-1,50
 317 -427 317 -427 256 -397.5 c 128,-1,51
 195 -368 195 -368 159 -320 c 0,52,53
 100 -242 100 -242 100 -133.5 c 128,-1,54
 100 -25 100 -25 159 53 c 0,55,56
 208 118 208 118 294 144 c 1,57,58
 253 185 253 185 221.5 227.5 c 128,-1,59
 190 270 190 270 161 325.5 c 128,-1,60
 132 381 132 381 116 449 c 128,-1,61
 100 517 100 517 100 592 c 0,62,63
 100 830 100 830 185 982 c 0,64,65
 235 1072 235 1072 322.5 1127.5 c 128,-1,66
 410 1183 410 1183 521 1183 c 2,21,-1
EndSplineSet
Validated: 1025
EndChar

StartChar: uniE656
Encoding: 58966 58966 25
Width: 834
VWidth: 1997
GlyphClass: 2
Flags: W
HStem: 1456 160<100 451.548>
VStem: 575 159<704.122 1290.55>
LayerCount: 2
Fore
SplineSet
100 1616 m 1,0,-1
 313 1616 l 2,1,2
 424 1616 424 1616 511.5 1560.5 c 128,-1,3
 599 1505 599 1505 650 1415 c 0,4,5
 734 1265 734 1265 734 1030 c 0,6,7
 734 1027 734 1027 734 1024 c 0,8,9
 734 877 734 877 703.5 741.5 c 128,-1,10
 673 606 673 606 624 507.5 c 128,-1,11
 575 409 575 409 515.5 324 c 128,-1,12
 456 239 456 239 397 183.5 c 128,-1,13
 338 128 338 128 289 88.5 c 128,-1,14
 240 49 240 49 209 32 c 2,15,-1
 178 14 l 1,16,-1
 107 157 l 1,17,18
 117 162 117 162 134 171 c 128,-1,19
 151 180 151 180 199.5 216 c 128,-1,20
 248 252 248 252 292 295.5 c 128,-1,21
 336 339 336 339 390 413 c 128,-1,22
 444 487 444 487 483 571 c 128,-1,23
 522 655 522 655 548.5 774 c 128,-1,24
 575 893 575 893 575 1024 c 0,25,26
 575 1221 575 1221 510 1337 c 0,27,28
 487 1378 487 1378 462 1403 c 128,-1,29
 437 1428 437 1428 400 1442 c 128,-1,30
 363 1456 363 1456 313 1456 c 2,31,-1
 100 1456 l 1,32,-1
 100 1616 l 1,0,-1
EndSplineSet
Validated: 1
EndChar

StartChar: uniE657
Encoding: 58967 58967 26
Width: 834
VWidth: 1997
GlyphClass: 2
Flags: W
HStem: -421 159<382.51 734>
VStem: 100 159<-99.9659 490.583>
LayerCount: 2
Fore
SplineSet
656 1181 m 1,0,-1
 727 1038 l 1,1,2
 717 1033 717 1033 700.5 1023.5 c 128,-1,3
 684 1014 684 1014 635.5 978 c 128,-1,4
 587 942 587 942 542.5 899 c 128,-1,5
 498 856 498 856 444 782 c 128,-1,6
 390 708 390 708 351.5 624 c 128,-1,7
 313 540 313 540 286 421 c 128,-1,8
 259 302 259 302 259 171 c 0,9,10
 259 -26 259 -26 324 -143 c 0,11,12
 358 -204 358 -204 403 -233 c 128,-1,13
 448 -262 448 -262 521 -262 c 2,14,-1
 734 -262 l 1,15,-1
 734 -421 l 1,16,-1
 521 -421 l 2,17,18
 410 -421 410 -421 322.5 -365.5 c 128,-1,19
 235 -310 235 -310 185 -220 c 0,20,21
 100 -68 100 -68 100 171 c 0,22,23
 100 287 100 287 119 395.5 c 128,-1,24
 138 504 138 504 170 590 c 128,-1,25
 202 676 202 676 244 753.5 c 128,-1,26
 286 831 286 831 332 889.5 c 128,-1,27
 378 948 378 948 424 997 c 128,-1,28
 470 1046 470 1046 512 1079.5 c 128,-1,29
 554 1113 554 1113 586 1136 c 128,-1,30
 618 1159 618 1159 637 1170 c 2,31,-1
 656 1181 l 1,0,-1
EndSplineSet
Validated: 1
EndChar

StartChar: uniE658
Encoding: 58968 58968 27
Width: 921
VWidth: 1997
GlyphClass: 2
Flags: W
HStem: 6 159<338.066 531.899> 1030 159<357.004 612>
VStem: 100 159<270.802 923.198> 612 159<271.137 1030 1189 1621>
LayerCount: 2
Fore
SplineSet
612 1621 m 1,0,-1
 771 1621 l 1,1,-1
 771 597 l 2,2,3
 771 353 771 353 718 216 c 0,4,5
 681 120 681 120 616 68 c 0,6,7
 541 6 541 6 436 6 c 128,-1,8
 331 6 331 6 255 68 c 0,9,10
 191 121 191 121 153 216 c 0,11,12
 100 353 100 353 100 597 c 128,-1,13
 100 841 100 841 153 978 c 0,14,15
 190 1074 190 1074 255 1127 c 0,16,17
 330 1189 330 1189 436 1189 c 2,18,-1
 612 1189 l 1,19,-1
 612 1621 l 1,0,-1
436 1030 m 2,20,21
 388 1030 388 1030 356 1004 c 0,22,23
 324 977 324 977 302 920 c 0,24,25
 259 811 259 811 259 597.5 c 128,-1,26
 259 384 259 384 302 274 c 0,27,28
 324 217 324 217 356 191 c 0,29,30
 387 165 387 165 435.5 165 c 128,-1,31
 484 165 484 165 515 191 c 0,32,33
 547 218 547 218 569 274 c 0,34,35
 612 384 612 384 612 597 c 2,36,-1
 612 1030 l 1,37,-1
 436 1030 l 2,20,21
EndSplineSet
Validated: 1
EndChar

StartChar: uniE659
Encoding: 58969 58969 28
Width: 876
VWidth: 1980
GlyphClass: 2
Flags: W
HStem: -421 159<296.528 586.061> 6 159<100 106 265 519.996> 1030 159<345.101 529.373>
VStem: 106 159<-228.09 6 165 922.863> 618 159<-226.745 -85 270.994 923.207>
LayerCount: 2
Fore
SplineSet
441 1189 m 128,-1,1
 546 1189 546 1189 622 1127 c 0,2,3
 686 1074 686 1074 724 978 c 0,4,5
 777 841 777 841 777 597.5 c 128,-1,6
 777 354 777 354 724 216 c 0,7,8
 687 120 687 120 622 68 c 0,9,10
 547 6 547 6 441 6 c 2,11,-1
 265 6 l 1,12,-1
 265 -128 l 2,13,14
 265 -182 265 -182 293 -214 c 0,15,16
 336 -262 336 -262 442 -262 c 0,17,18
 443 -262 443 -262 444 -262 c 0,19,20
 549 -262 549 -262 589 -214 c 0,21,22
 617 -182 617 -182 618 -128 c 2,23,-1
 618 -85 l 1,24,-1
 777 -85 l 1,25,-1
 777 -128 l 2,26,27
 777 -242 777 -242 709 -319 c 0,28,29
 667 -367 667 -367 599 -394 c 128,-1,30
 531 -421 531 -421 441.5 -421 c 128,-1,31
 352 -421 352 -421 283.5 -394 c 128,-1,32
 215 -367 215 -367 173 -319 c 0,33,34
 106 -243 106 -243 106 -131 c 0,35,36
 106 -130 106 -130 106 -128 c 2,37,-1
 106 6 l 1,38,-1
 100 6 l 1,39,-1
 100 165 l 1,40,-1
 106 165 l 1,41,-1
 106 597 l 2,42,43
 106 841 106 841 159 978 c 0,44,45
 196 1074 196 1074 261 1127 c 0,46,0
 336 1189 336 1189 441 1189 c 128,-1,1
441 1030 m 128,-1,48
 393 1030 393 1030 362 1004 c 0,49,50
 330 977 330 977 308 920 c 0,51,52
 265 811 265 811 265 597 c 2,53,-1
 265 165 l 1,54,-1
 441 165 l 2,55,56
 489 165 489 165 521 191 c 0,57,58
 553 218 553 218 575 274 c 0,59,60
 618 384 618 384 618 597.5 c 128,-1,61
 618 811 618 811 575 920 c 0,62,63
 553 977 553 977 521 1004 c 0,64,47
 489 1030 489 1030 441 1030 c 128,-1,48
EndSplineSet
Validated: 1025
EndChar

StartChar: uniE65A
Encoding: 58970 58970 29
Width: 712
VWidth: 1997
GlyphClass: 2
Flags: W
HStem: 6 159<100 337.797> 1456 160<374.422 612>
VStem: 106 159<1015.8 1346.65> 447 159<276.627 614.156>
LayerCount: 2
Fore
SplineSet
527 1616 m 2,0,-1
 612 1616 l 1,1,-1
 612 1456 l 1,2,-1
 527 1456 l 2,3,4
 465 1456 465 1456 414 1434 c 0,5,6
 362 1411 362 1411 331 1375 c 0,7,8
 299 1337 299 1337 282 1291 c 128,-1,9
 265 1245 265 1245 265 1195 c 0,10,11
 265 1154 265 1154 269 1129 c 128,-1,12
 273 1104 273 1104 287 1068 c 0,13,14
 299 1037 299 1037 309 1017 c 0,15,16
 319 993 319 993 341 964 c 0,17,18
 365 932 365 932 376 917 c 0,19,20
 418 865 l 0,21,22
 471 800 471 800 472 798 c 0,23,24
 488 777 488 777 521 724 c 0,25,26
 550 678 550 678 566 637 c 0,27,28
 582 597 582 597 594 540 c 0,29,30
 605 489 605 489 606 427 c 0,31,32
 606 425 606 425 606 422 c 0,33,34
 606 346 606 346 576 272 c 0,35,36
 545 196 545 196 492 137 c 0,37,38
 440 79 440 79 358 42 c 0,39,40
 278 6 278 6 185 6 c 2,41,-1
 100 6 l 1,42,-1
 100 165 l 1,43,-1
 185 165 l 2,44,45
 249 165 249 165 298 187 c 0,46,47
 349 210 349 210 381 247 c 0,48,49
 414 285 414 285 430 330 c 0,50,51
 447 377 447 377 447 427 c 0,52,53
 447 466 447 466 438 511 c 0,54,55
 430 549 430 549 419 579 c 0,56,57
 408 608 408 608 384 645 c 0,58,59
 362 680 362 680 344 703 c 0,60,61
 316 741 316 741 295 765 c 0,62,63
 262 804 262 804 241 832 c 0,64,65
 210 874 210 874 192 903 c 0,66,67
 166 945 166 945 147 989 c 0,68,69
 129 1030 129 1030 118 1083 c 0,70,71
 107 1135 107 1135 106 1195 c 0,72,73
 106 1197 106 1197 106 1200 c 0,74,75
 106 1275 106 1275 136 1349 c 0,76,77
 166 1424 166 1424 220 1484 c 128,-1,78
 274 1544 274 1544 354 1580 c 0,79,80
 435 1616 435 1616 527 1616 c 2,0,-1
EndSplineSet
Validated: 1025
EndChar

StartChar: uniE65B
Encoding: 58971 58971 30
Width: 712
VWidth: 1997
GlyphClass: 2
Flags: W
HStem: -421 159<375.216 612> 1030 159<100 337.253>
VStem: 106 159<-150.489 179.687> 447 159<580.553 918.489>
LayerCount: 2
Fore
SplineSet
100 1189 m 1,0,-1
 185 1189 l 2,1,2
 277 1189 277 1189 358 1153 c 128,-1,3
 439 1117 439 1117 492 1058 c 0,4,5
 547 997 547 997 576 923 c 0,6,7
 605 851 605 851 606 768 c 0,8,9
 606 764 606 764 606 760 c 0,10,11
 606 709 606 709 594 654 c 0,12,13
 581 595 581 595 566 558 c 0,14,15
 547 512 547 512 521 470 c 0,16,17
 489 418 489 418 472 397 c 0,18,19
 440 355 440 355 418 329 c 0,20,21
 387 292 387 292 376 277 c 0,22,23
 344 234 344 234 341 230 c 0,24,25
 325 208 325 208 309 178 c 0,26,27
 303 168 303 168 287 127 c 0,28,29
 272 91 272 91 269 66 c 0,30,31
 265 37 265 37 265 0 c 0,32,33
 265 -49 265 -49 282 -96 c 128,-1,34
 299 -143 299 -143 331 -180 c 0,35,36
 362 -215 362 -215 414 -239 c 0,37,38
 465 -262 465 -262 527 -262 c 2,39,-1
 612 -262 l 1,40,-1
 612 -421 l 1,41,-1
 527 -421 l 2,42,43
 435 -421 435 -421 354 -385 c 128,-1,44
 273 -349 273 -349 220 -290 c 0,45,46
 165 -229 165 -229 136 -155 c 0,47,48
 107 -83 107 -83 106 0 c 0,49,50
 106 4 106 4 106 8 c 0,51,52
 106 62 106 62 118 112 c 0,53,54
 131 164 131 164 147 205 c 0,55,56
 162 242 162 242 192 291 c 0,57,58
 223 341 223 341 241 363 c 0,59,60
 284 416 284 416 295 430 c 0,61,62
 329 472 329 472 344 492 c 0,63,64
 363 516 363 516 384 549 c 0,65,66
 408 587 408 587 419 615 c 0,67,68
 432 649 432 649 439 683 c 0,69,70
 447 724 447 724 447 768 c 2,71,72
 447 805 447 805 436 846 c 0,73,74
 426 885 426 885 404 917 c 0,75,76
 383 948 383 948 351 975 c 0,77,78
 321 1000 321 1000 278 1015 c 128,-1,79
 235 1030 235 1030 185 1030 c 2,80,-1
 100 1030 l 1,81,-1
 100 1189 l 1,0,-1
EndSplineSet
Validated: 1025
EndChar

StartChar: uniE65C
Encoding: 58972 58972 31
Width: 834
VWidth: 1997
GlyphClass: 2
Flags: W
HStem: 6 159<382.51 734>
VStem: 100 159<326.812 921.124>
LayerCount: 2
Fore
SplineSet
656 1607 m 1,0,-1
 727 1465 l 1,1,2
 721 1462 721 1462 710.5 1456.5 c 128,-1,3
 700 1451 700 1451 668.5 1429.5 c 128,-1,4
 637 1408 637 1408 606 1383 c 128,-1,5
 575 1358 575 1358 532.5 1315 c 128,-1,6
 490 1272 490 1272 454 1224 c 128,-1,7
 418 1176 418 1176 381 1108 c 128,-1,8
 344 1040 344 1040 318 966 c 128,-1,9
 292 892 292 892 275.5 796.5 c 128,-1,10
 259 701 259 701 259 597 c 0,11,12
 259 400 259 400 324 284 c 0,13,14
 358 223 358 223 403 194 c 128,-1,15
 448 165 448 165 521 165 c 2,16,-1
 734 165 l 1,17,-1
 734 6 l 1,18,-1
 521 6 l 2,19,20
 410 6 410 6 322.5 61 c 128,-1,21
 235 116 235 116 185 207 c 0,22,23
 100 359 100 359 100 597 c 0,24,25
 100 713 100 713 119 822 c 128,-1,26
 138 931 138 931 170 1016.5 c 128,-1,27
 202 1102 202 1102 244 1180 c 128,-1,28
 286 1258 286 1258 332 1316 c 128,-1,29
 378 1374 378 1374 424 1423.5 c 128,-1,30
 470 1473 470 1473 512 1506 c 128,-1,31
 554 1539 554 1539 586 1562.5 c 128,-1,32
 618 1586 618 1586 637 1597 c 2,33,-1
 656 1607 l 1,0,-1
EndSplineSet
Validated: 1
EndChar

StartChar: uniE65D
Encoding: 58973 58973 32
Width: 882
VWidth: 1997
GlyphClass: 2
Flags: W
HStem: -421 159<289.72 447.485> 6 159<291.088 535 718 783> 1030 159<100 451.49>
VStem: 106 159<-241.033 -14.9672> 575 159<170.427 868.418>
LayerCount: 2
Fore
SplineSet
100 1189 m 1,0,-1
 313 1189 l 2,1,2
 424 1189 424 1189 511.5 1133.5 c 128,-1,3
 599 1078 599 1078 650 988 c 0,4,5
 734 838 734 838 734 603 c 0,6,7
 734 600 734 600 734 597 c 0,8,9
 734 336 734 336 718 165 c 1,10,-1
 783 165 l 1,11,-1
 783 6 l 1,12,-1
 697 6 l 1,13,14
 688 -46 688 -46 679 -83 c 0,15,16
 641 -235 641 -235 572 -318 c 0,17,18
 532 -366 532 -366 475.5 -393.5 c 128,-1,19
 419 -421 419 -421 356 -421 c 0,20,21
 252 -421 252 -421 179 -335.5 c 128,-1,22
 106 -250 106 -250 106 -128 c 128,-1,23
 106 -6 106 -6 179 79.5 c 128,-1,24
 252 165 252 165 356 165 c 2,25,-1
 558 165 l 1,26,27
 575 338 575 338 575 597 c 0,28,29
 575 794 575 794 510 911 c 0,30,31
 476 972 476 972 431 1001 c 128,-1,32
 386 1030 386 1030 313 1030 c 2,33,-1
 100 1030 l 1,34,-1
 100 1189 l 1,0,-1
356 6 m 2,35,36
 326 6 326 6 295.5 -29.5 c 128,-1,37
 265 -65 265 -65 265 -128 c 128,-1,38
 265 -191 265 -191 295.5 -226.5 c 128,-1,39
 326 -262 326 -262 356 -262 c 0,40,41
 377 -262 377 -262 393 -257.5 c 128,-1,42
 409 -253 409 -253 422 -243 c 128,-1,43
 435 -233 435 -233 449 -216 c 0,44,45
 494 -161 494 -161 524 -45 c 0,46,47
 529 -27 529 -27 535 6 c 1,48,-1
 356 6 l 2,35,36
EndSplineSet
Validated: 1025
EndChar

StartChar: uniE65E
Encoding: 58974 58974 33
Width: 1053
VWidth: 1673
GlyphClass: 2
Flags: W
HStem: 6 159<602.452 954>
VStem: 320 159<326.268 860.644>
LayerCount: 2
Fore
SplineSet
825 1646 m 1,0,-1
 925 1522 l 1,1,2
 916 1512 916 1512 899.5 1494.5 c 128,-1,3
 883 1477 883 1477 837 1420 c 128,-1,4
 791 1363 791 1363 749 1303.5 c 128,-1,5
 707 1244 707 1244 655.5 1156 c 128,-1,6
 604 1068 604 1068 567 983 c 128,-1,7
 530 898 530 898 504.5 795 c 128,-1,8
 479 692 479 692 479 597 c 0,9,10
 479 400 479 400 544 284 c 0,11,12
 578 223 578 223 622.5 194 c 128,-1,13
 667 165 667 165 741 165 c 2,14,-1
 954 165 l 1,15,-1
 954 6 l 1,16,-1
 741 6 l 2,17,18
 630 6 630 6 542.5 61 c 128,-1,19
 455 116 455 116 404 207 c 0,20,21
 320 357 320 357 320 591 c 0,22,23
 320 594 320 594 320 597 c 0,24,25
 320 916 320 916 526 1262 c 1,26,-1
 187 1042 l 1,27,-1
 100 1176 l 1,28,-1
 825 1646 l 1,0,-1
EndSplineSet
Validated: 1
EndChar

StartChar: uniE65F
Encoding: 58975 58975 34
Width: 1053
VWidth: 1673
GlyphClass: 2
Flags: W
HStem: 1030 159<100 451.49>
VStem: 575 159<333.356 868.418>
LayerCount: 2
Fore
SplineSet
100 1189 m 1,0,-1
 313 1189 l 2,1,2
 424 1189 424 1189 511.5 1133.5 c 128,-1,3
 599 1078 599 1078 650 988 c 0,4,5
 734 838 734 838 734 603 c 0,6,7
 734 600 734 600 734 597 c 0,8,9
 734 278 734 278 528 -68 c 1,10,-1
 867 152 l 1,11,-1
 954 18 l 1,12,-1
 229 -451 l 1,13,-1
 129 -328 l 1,14,15
 138 -318 138 -318 154 -300.5 c 128,-1,16
 170 -283 170 -283 216.5 -226 c 128,-1,17
 263 -169 263 -169 305 -109.5 c 128,-1,18
 347 -50 347 -50 398.5 38 c 128,-1,19
 450 126 450 126 487 211.5 c 128,-1,20
 524 297 524 297 549.5 400 c 128,-1,21
 575 503 575 503 575 597 c 0,22,23
 575 794 575 794 510 911 c 0,24,25
 476 972 476 972 431 1001 c 128,-1,26
 386 1030 386 1030 313 1030 c 2,27,-1
 100 1030 l 1,28,-1
 100 1189 l 1,0,-1
EndSplineSet
Validated: 1
EndChar

StartChar: uniE660
Encoding: 58976 58976 35
Width: 834
VWidth: 1656
GlyphClass: 2
Flags: W
HStem: 0 21G<234 393> 1030 159<100 234 393 551.672> 1456 160<416.246 551.491>
VStem: 234 159<0 1030 1189 1432.62> 575 159<1209.83 1434.62>
LayerCount: 2
Fore
SplineSet
484 1616 m 0,0,1
 552 1616 552 1616 609.5 1577 c 128,-1,2
 667 1538 667 1538 700.5 1470.5 c 128,-1,3
 734 1403 734 1403 734 1323 c 0,4,5
 734 1201 734 1201 661 1115.5 c 128,-1,6
 588 1030 588 1030 484 1030 c 2,7,-1
 393 1030 l 1,8,-1
 393 0 l 1,9,-1
 234 0 l 1,10,-1
 234 1030 l 1,11,-1
 100 1030 l 1,12,-1
 100 1189 l 1,13,-1
 234 1189 l 1,14,-1
 234 1323 l 2,15,16
 234 1445 234 1445 307 1530.5 c 128,-1,17
 380 1616 380 1616 484 1616 c 0,0,1
484 1456 m 0,18,19
 471 1456 471 1456 456 1448 c 128,-1,20
 441 1440 441 1440 426.5 1424.5 c 128,-1,21
 412 1409 412 1409 402.5 1382 c 128,-1,22
 393 1355 393 1355 393 1323 c 2,23,-1
 393 1189 l 1,24,-1
 484 1189 l 2,25,26
 497 1189 497 1189 512 1197 c 128,-1,27
 527 1205 527 1205 541.5 1220.5 c 128,-1,28
 556 1236 556 1236 565.5 1263 c 128,-1,29
 575 1290 575 1290 575 1323 c 0,30,31
 575 1386 575 1386 544.5 1421 c 128,-1,32
 514 1456 514 1456 484 1456 c 0,18,19
EndSplineSet
Validated: 1
EndChar

StartChar: uniE661
Encoding: 58977 58977 36
Width: 1029
VWidth: 1997
GlyphClass: 2
Flags: W
LayerCount: 2
Fore
SplineSet
783 1226 m 1,0,-1
 929 1164 l 1,1,-1
 247 -458 l 1,2,-1
 100 -396 l 1,3,-1
 783 1226 l 1,0,-1
EndSplineSet
Validated: 1
EndChar

StartChar: uniE662
Encoding: 58978 58978 37
Width: 750
VWidth: 1997
GlyphClass: 2
Flags: W
HStem: 0 21G<150 309> 1456.5 159.5<358.533 442.467>
VStem: 150 159<0 1295> 491 159<1109 1435.31>
LayerCount: 2
Fore
SplineSet
400.5 1616 m 128,-1,1
 446 1616 446 1616 486.5 1598.5 c 128,-1,2
 527 1581 527 1581 555 1552 c 0,3,4
 600 1507 600 1507 625 1433 c 0,5,6
 637 1398 637 1398 643.5 1359.5 c 128,-1,7
 650 1321 650 1321 650 1301 c 2,8,-1
 650 1280 l 1,9,-1
 650 1109 l 1,10,-1
 491 1109 l 1,11,-1
 491 1280 l 2,12,13
 490 1334 490 1334 474 1383 c 0,14,15
 461 1421 461 1421 443 1440 c 0,16,17
 426 1457 426 1457 400.5 1456.5 c 128,-1,18
 375 1456 375 1456 358 1440 c 0,19,20
 339 1421 339 1421 327 1383 c 0,21,22
 320 1361 320 1361 315.5 1335.5 c 128,-1,23
 311 1310 311 1310 310 1295 c 2,24,-1
 309 1280 l 1,25,-1
 309 0 l 1,26,-1
 150 0 l 1,27,-1
 150 1280 l 2,28,29
 150 1283 150 1283 150 1285 c 0,30,31
 150 1356 150 1356 175 1433 c 0,32,33
 200 1507 200 1507 245 1552 c 0,34,35
 274 1581 274 1581 314.5 1598.5 c 128,-1,0
 355 1616 355 1616 400.5 1616 c 128,-1,1
EndSplineSet
Validated: 1
EndChar

StartChar: uniE663
Encoding: 58979 58979 38
Width: 1363
VWidth: 1997
GlyphClass: 2
Flags: W
LayerCount: 2
Fore
SplineSet
1117 1226 m 1,0,-1
 1264 1164 l 1,1,-1
 581 -458 l 1,2,-1
 441 -471 l 1,3,-1
 100 41 l 1,4,-1
 233 130 l 1,5,-1
 492 -259 l 1,6,-1
 1117 1226 l 1,0,-1
EndSplineSet
Validated: 1
EndChar

StartChar: uniE664
Encoding: 58980 58980 39
Width: 1053
VWidth: 1673
GlyphClass: 2
Flags: W
HStem: 6 159<100 323.562 724.234 953> 1456 160<426.471 627.768>
VStem: 191 159<678.454 1359.16> 703 159<678.454 1363.46>
LayerCount: 2
Fore
SplineSet
527 1616 m 0,0,1
 582 1616 582 1616 632 1595.5 c 128,-1,2
 682 1575 682 1575 721.5 1540 c 128,-1,3
 761 1505 761 1505 788 1458 c 0,4,5
 862 1328 862 1328 862 1109 c 0,6,7
 862 580 862 580 667 296 c 0,8,9
 655 278 655 278 639 259 c 1,10,11
 766 165 766 165 953 165 c 1,12,-1
 953 6 l 1,13,14
 706 6 706 6 527 146 c 1,15,16
 347 6 347 6 100 6 c 1,17,-1
 100 165 l 1,18,19
 287 165 287 165 414 259 c 1,20,21
 399 278 399 278 386 296 c 0,22,23
 191 580 191 580 191 1109 c 0,24,25
 191 1327 191 1327 266 1458 c 0,26,27
 307 1530 307 1530 376 1573 c 128,-1,28
 445 1616 445 1616 527 1616 c 0,0,1
526.5 1456 m 128,-1,30
 483 1456 483 1456 455.5 1439 c 128,-1,31
 428 1422 428 1422 404 1379 c 0,32,33
 350 1285 350 1285 350 1109 c 0,34,35
 350 629 350 629 518 386 c 0,36,37
 519 385 519 385 520 383.5 c 128,-1,38
 521 382 521 382 522 380.5 c 128,-1,39
 523 379 523 379 524.5 377.5 c 128,-1,40
 526 376 526 376 527 375 c 1,41,42
 528 377 528 377 531 380.5 c 128,-1,43
 534 384 534 384 536 386 c 0,44,45
 703 629 703 629 703 1109 c 0,46,47
 703 1285 703 1285 650 1379 c 0,48,49
 626 1421 626 1421 598 1438.5 c 128,-1,29
 570 1456 570 1456 526.5 1456 c 128,-1,30
EndSplineSet
Validated: 1
EndChar

StartChar: uniE665
Encoding: 58981 58981 40
Width: 797
VWidth: 1963
GlyphClass: 2
Flags: W
HStem: -421 160<296.68 499.389> 6 159<100 106 265 495.899> 1030 159<461.953 697>
VStem: 106 159<-224.899 6 165 778.831> 532 160<-228.389 -25.68>
LayerCount: 2
Fore
SplineSet
612 1189 m 2,0,-1
 697 1189 l 1,1,-1
 697 1030 l 1,2,-1
 612 1030 l 2,3,4
 464 1030 464 1030 368 893 c 0,5,6
 320 824 320 824 292.5 726 c 128,-1,7
 265 628 265 628 265 512 c 2,8,-1
 265 165 l 1,9,-1
 399 165 l 2,10,11
 528 165 528 165 610 83 c 128,-1,12
 692 1 692 1 692 -128 c 128,-1,13
 692 -257 692 -257 610 -339 c 128,-1,14
 528 -421 528 -421 399 -421 c 128,-1,15
 270 -421 270 -421 188 -339 c 128,-1,16
 106 -257 106 -257 106 -128 c 2,17,-1
 106 6 l 1,18,-1
 100 6 l 1,19,-1
 100 165 l 1,20,-1
 106 165 l 1,21,-1
 106 512 l 2,22,23
 106 796 106 796 237 985 c 0,24,25
 304 1080 304 1080 401.5 1134.5 c 128,-1,26
 499 1189 499 1189 612 1189 c 2,0,-1
265 6 m 1,27,-1
 265 -128 l 2,28,29
 265 -191 265 -191 300.5 -226 c 128,-1,30
 336 -261 336 -261 399 -261 c 128,-1,31
 462 -261 462 -261 497 -226 c 128,-1,32
 532 -191 532 -191 532 -128 c 128,-1,33
 532 -65 532 -65 497 -29.5 c 128,-1,34
 462 6 462 6 399 6 c 2,35,-1
 265 6 l 1,27,-1
EndSplineSet
Validated: 1
EndChar

StartChar: uniE666
Encoding: 58982 58982 41
Width: 968
VWidth: 1656
GlyphClass: 2
Flags: W
HStem: 6 159<403.461 564.539> 1030 159<100 323.877 644.123 868>
VStem: 191 159<223.082 697.118> 618 159<223.082 698.348>
LayerCount: 2
Fore
SplineSet
100 1189 m 1,0,1
 320 1189 320 1189 484 1076 c 1,2,3
 648 1189 648 1189 868 1189 c 1,4,-1
 868 1030 l 1,5,6
 714 1030 714 1030 604 966 c 1,7,8
 606 964 606 964 612.5 956 c 128,-1,9
 619 948 619 948 622 944 c 0,10,11
 675 873 675 873 710.5 786 c 128,-1,12
 746 699 746 699 761.5 610 c 128,-1,13
 777 521 777 521 777 427 c 0,14,15
 777 245 777 245 706 133 c 0,16,17
 669 75 669 75 610 40.5 c 128,-1,18
 551 6 551 6 484 6 c 128,-1,19
 417 6 417 6 358 40.5 c 128,-1,20
 299 75 299 75 262 133 c 0,21,22
 191 245 191 245 191 427 c 0,23,24
 191 572 191 572 229 705 c 128,-1,25
 267 838 267 838 346 944 c 0,26,27
 349 948 349 948 355.5 956 c 128,-1,28
 362 964 362 964 364 966 c 1,29,30
 254 1030 254 1030 100 1030 c 1,31,-1
 100 1189 l 1,0,1
484 861 m 1,32,33
 483 859 483 859 479 855 c 128,-1,34
 475 851 475 851 473 848 c 0,35,36
 413 767 413 767 381.5 657.5 c 128,-1,37
 350 548 350 548 350 427 c 0,38,39
 350 292 350 292 397 219 c 0,40,41
 416 189 416 189 435.5 177 c 128,-1,42
 455 165 455 165 484 165 c 128,-1,43
 513 165 513 165 532.5 177 c 128,-1,44
 552 189 552 189 571 219 c 0,45,46
 617 292 617 292 618 427 c 0,47,48
 618 548 618 548 586.5 658 c 128,-1,49
 555 768 555 768 495 848 c 0,50,51
 494 850 494 850 492 852.5 c 128,-1,52
 490 855 490 855 487.5 857 c 128,-1,53
 485 859 485 859 484 861 c 1,32,33
EndSplineSet
Validated: 1025
EndChar

StartChar: uniE667
Encoding: 58983 58983 42
Width: 876
VWidth: 1997
GlyphClass: 2
Flags: W
HStem: 6 159<100 277.783> 518 159<100 281.578>
VStem: 362 159<239.814 447.375> 618 159<953.765 1195>
LayerCount: 2
Fore
SplineSet
618 1195 m 1,0,-1
 777 1195 l 1,1,2
 777 1101 777 1101 757.5 1016.5 c 128,-1,3
 738 932 738 932 705.5 869 c 128,-1,4
 673 806 673 806 627.5 752.5 c 128,-1,5
 582 699 582 699 534.5 663 c 128,-1,6
 487 627 487 627 434 601 c 0,7,8
 430 599 430 599 400 585 c 1,9,10
 457 542 457 542 490 478 c 0,11,12
 521 418 521 418 521 348 c 0,13,14
 521 344 521 344 521 339 c 0,15,16
 519 259 519 259 480 192.5 c 128,-1,17
 441 126 441 126 378 83 c 0,18,19
 264 6 264 6 104 6 c 0,20,21
 102 6 102 6 100 6 c 1,22,-1
 100 165 l 1,23,24
 214 165 214 165 289 215 c 0,25,26
 325 240 325 240 343 270 c 0,27,28
 362 302 362 302 362 348 c 0,29,30
 362 387 362 387 346 414 c 0,31,32
 329 443 329 443 292 467 c 0,33,34
 256 491 256 491 205 504.5 c 128,-1,35
 154 518 154 518 100 518 c 1,36,-1
 100 677 l 1,37,38
 115 677 115 677 140.5 679 c 128,-1,39
 166 681 166 681 235.5 697.5 c 128,-1,40
 305 714 305 714 363 743 c 0,41,42
 406 764 406 764 440 789 c 128,-1,43
 474 814 474 814 508.5 852 c 128,-1,44
 543 890 543 890 566 936.5 c 128,-1,45
 589 983 589 983 603.5 1049.5 c 128,-1,46
 618 1116 618 1116 618 1195 c 1,0,-1
EndSplineSet
Validated: 1
EndChar

StartChar: uniE668
Encoding: 58984 58984 43
Width: 706
VWidth: 1997
GlyphClass: 2
Flags: W
HStem: 6 159<100 305.843> 1030 159<100 301.51>
VStem: 447 159<341.506 848.773>
LayerCount: 2
Fore
SplineSet
100 1189 m 1,0,-1
 185 1189 l 2,1,2
 267 1189 267 1189 342.5 1148 c 128,-1,3
 418 1107 418 1107 477 1032.5 c 128,-1,4
 536 958 536 958 571 845 c 128,-1,5
 606 732 606 732 606 597 c 0,6,7
 606 329 606 329 484 166 c 0,8,9
 427 90 427 90 348.5 48 c 128,-1,10
 270 6 270 6 185 6 c 2,11,-1
 100 6 l 1,12,-1
 100 165 l 1,13,-1
 185 165 l 2,14,15
 284 165 284 165 356 261 c 0,16,17
 447 382 447 382 447 597 c 0,18,19
 447 687 447 687 429.5 762 c 128,-1,20
 412 837 412 837 385 885.5 c 128,-1,21
 358 934 358 934 322.5 967.5 c 128,-1,22
 287 1001 287 1001 252.5 1015.5 c 128,-1,23
 218 1030 218 1030 185 1030 c 2,24,-1
 100 1030 l 1,25,-1
 100 1189 l 1,0,-1
EndSplineSet
Validated: 1
EndChar

StartChar: uniE669
Encoding: 58985 58985 44
Width: 1041
VWidth: 1997
GlyphClass: 2
Flags: W
HStem: 0 21G<783 942>
VStem: 100 159<326.812 873.177> 441 159<177 1018 1168.97 1621> 783 159<0 867.514>
LayerCount: 2
Fore
SplineSet
441 1621 m 1,0,-1
 600 1621 l 1,1,-1
 600 1180 l 1,2,3
 684 1162 684 1162 750.5 1111.5 c 128,-1,4
 817 1061 817 1061 857 988 c 0,5,6
 942 836 942 836 942 597 c 2,7,-1
 942 0 l 1,8,-1
 783 0 l 1,9,-1
 783 597 l 2,10,11
 783 794 783 794 718 911 c 0,12,13
 671 995 671 995 600 1018 c 1,14,-1
 600 6 l 1,15,-1
 521 6 l 2,16,17
 410 6 410 6 322.5 61 c 128,-1,18
 235 116 235 116 185 207 c 0,19,20
 100 359 100 359 100 597 c 0,21,22
 100 843 100 843 185 994 c 0,23,24
 225 1065 225 1065 291 1114 c 128,-1,25
 357 1163 357 1163 441 1180 c 1,26,-1
 441 1621 l 1,0,-1
441 1019 m 1,27,28
 369 997 369 997 324 915 c 0,29,30
 260 801 260 801 259 597 c 0,31,32
 259 400 259 400 324 284 c 0,33,34
 371 200 371 200 441 177 c 1,35,-1
 441 1019 l 1,27,28
EndSplineSet
Validated: 1
EndChar

StartChar: uniE66A
Encoding: 58986 58986 45
Width: 876
VWidth: 1997
GlyphClass: 2
Flags: W
HStem: 6 159<597.947 777> 518 159<594.68 777>
VStem: 100 159<954.531 1195> 356 159<237.692 447.011>
LayerCount: 2
Fore
SplineSet
100 1195 m 1,0,-1
 259 1195 l 1,1,2
 259 1133 259 1133 269 1071 c 0,3,4
 279 1011 279 1011 296 971 c 0,5,6
 311 936 311 936 338 892 c 0,7,8
 361 854 361 854 390 828 c 0,9,10
 423 798 423 798 449 781 c 0,11,12
 485 757 485 757 514 743 c 0,13,14
 558 722 558 722 591 711 c 0,15,16
 620 701 620 701 663 692 c 0,17,18
 677 689 677 689 722 682 c 0,19,20
 748 678 748 678 763 677 c 2,21,-1
 777 677 l 1,22,-1
 777 518 l 1,23,24
 728 518 728 518 672 504 c 0,25,26
 622 492 622 492 585 467 c 128,-1,27
 548 442 548 442 531 414 c 0,28,29
 515 387 515 387 515 351 c 0,30,31
 515 347 515 347 515 343 c 0,32,33
 517 298 517 298 534 270 c 0,34,35
 553 238 553 238 588 215 c 0,36,37
 663 165 663 165 777 165 c 1,38,-1
 777 6 l 1,39,40
 609 6 609 6 499 83 c 0,41,42
 458 112 458 112 427 149 c 0,43,44
 400 182 400 182 377 236 c 0,45,46
 357 284 357 284 356 339 c 0,47,48
 356 343 356 343 356 346 c 0,49,50
 356 398 356 398 370 437 c 0,51,52
 387 484 387 484 413 520 c 128,-1,53
 439 556 439 556 477 585 c 1,54,55
 452 596 452 596 443 601 c 0,56,57
 376 636 376 636 342 663 c 0,58,59
 301 695 301 695 250 753 c 0,60,61
 205 804 205 804 172 869 c 128,-1,62
 139 934 139 934 120 1016 c 0,63,64
 100 1100 100 1100 100 1195 c 1,0,-1
EndSplineSet
Validated: 1025
EndChar

StartChar: uniE66B
Encoding: 58987 58987 46
Width: 1029
VWidth: 1656
GlyphClass: 2
Flags: W
LayerCount: 2
Fore
SplineSet
782 1183 m 1,0,-1
 929 1121 l 1,1,-1
 705 592 l 1,2,-1
 929 74 l 1,3,-1
 783 11 l 1,4,-1
 619 389 l 1,5,-1
 460 12 l 1,6,-1
 313 74 l 1,7,-1
 532 592 l 1,8,-1
 100 1590 l 1,9,-1
 246 1653 l 1,10,-1
 618 794 l 1,11,-1
 782 1183 l 1,0,-1
EndSplineSet
Validated: 1
EndChar

StartChar: uniE66C
Encoding: 58988 58988 47
Width: 1029
VWidth: 1980
GlyphClass: 2
Flags: W
LayerCount: 2
Fore
SplineSet
569 1183 m 1,0,-1
 716 1121 l 1,1,-1
 497 603 l 1,2,-1
 929 -395 l 1,3,-1
 783 -458 l 1,4,-1
 411 401 l 1,5,-1
 247 12 l 1,6,-1
 100 74 l 1,7,-1
 324 603 l 1,8,-1
 100 1120 l 1,9,-1
 246 1184 l 1,10,-1
 410 806 l 1,11,-1
 569 1183 l 1,0,-1
EndSplineSet
Validated: 1
EndChar

StartChar: uniE670
Encoding: 58992 58992 48
Width: 459
VWidth: 1673
GlyphClass: 2
Flags: W
HStem: 0 21G<150 309>
VStem: 150 159<0 1195>
LayerCount: 2
Fore
SplineSet
150 1195 m 1,0,-1
 309 1195 l 1,1,-1
 309 0 l 1,2,-1
 150 0 l 1,3,-1
 150 1195 l 1,0,-1
EndSplineSet
Validated: 1
EndChar

StartChar: uniE671
Encoding: 58993 58993 49
Width: 872
VWidth: 1673
GlyphClass: 2
Flags: W
HStem: 0 21G<563 722>
VStem: 563 159<0 717>
LayerCount: 2
Fore
SplineSet
569 1140 m 1,0,-1
 722 1109 l 1,1,-1
 722 0 l 1,2,-1
 563 0 l 1,3,-1
 563 717 l 1,4,-1
 247 -31 l 1,5,-1
 100 31 l 1,6,-1
 569 1140 l 1,0,-1
EndSplineSet
Validated: 1
EndChar

StartChar: uniE672
Encoding: 58994 58994 50
Width: 756
VWidth: 1997
GlyphClass: 2
Flags: W
HStem: 6 159<450.157 656>
VStem: 150 159<341.884 1195>
LayerCount: 2
Fore
SplineSet
150 1195 m 1,0,-1
 309 1195 l 1,1,-1
 309 597 l 2,2,3
 309 382 309 382 400 261 c 0,4,5
 472 165 472 165 571 165 c 2,6,-1
 656 165 l 1,7,-1
 656 6 l 1,8,-1
 571 6 l 2,9,10
 487 6 487 6 408.5 47.5 c 128,-1,11
 330 89 330 89 273 166 c 0,12,13
 150 329 150 329 150 597 c 2,14,-1
 150 1195 l 1,0,-1
EndSplineSet
Validated: 1
EndChar

StartChar: uniE673
Encoding: 58995 58995 51
Width: 706
VWidth: 1997
GlyphClass: 2
Flags: W
HStem: 6 159<400.157 606> 688 160<276.585 421.891> 1030 159<276.966 422.834>
VStem: 100 159<341.884 708 865.585 1011.65> 441 160<865.928 1012>
LayerCount: 2
Fore
SplineSet
350 1189 m 0,0,1
 446 1189 446 1189 524 1112 c 0,2,3
 601 1036 601 1036 601 939 c 128,-1,4
 601 842 601 842 524 765 c 128,-1,5
 447 688 447 688 355 688 c 0,6,7
 353 688 353 688 350 688 c 0,8,9
 304 689 304 689 259 708 c 1,10,-1
 259 597 l 2,11,12
 259 382 259 382 350 261 c 0,13,14
 422 165 422 165 521 165 c 2,15,-1
 606 165 l 1,16,-1
 606 6 l 1,17,-1
 521 6 l 2,18,19
 438 6 438 6 358 48 c 0,20,21
 282 88 282 88 223 166 c 0,22,23
 100 329 100 329 100 597 c 2,24,-1
 100 939 l 2,25,26
 100 1036 100 1036 176.5 1112.5 c 128,-1,27
 253 1189 253 1189 350 1189 c 0,0,1
350 1030 m 128,-1,29
 319 1030 319 1030 289 1000 c 128,-1,30
 259 970 259 970 259 939 c 128,-1,31
 259 908 259 908 289 878 c 128,-1,32
 319 848 319 848 350 848 c 128,-1,33
 381 848 381 848 411 878 c 128,-1,34
 441 908 441 908 441 939 c 128,-1,35
 441 970 441 970 411 1000 c 128,-1,28
 381 1030 381 1030 350 1030 c 128,-1,29
EndSplineSet
Validated: 1
EndChar

StartChar: uniE674
Encoding: 58996 58996 52
Width: 756
VWidth: 1997
GlyphClass: 2
Flags: W
HStem: 6 159<100 305.843>
VStem: 447 159<341.884 1195>
LayerCount: 2
Fore
SplineSet
447 1195 m 1,0,-1
 606 1195 l 1,1,-1
 606 597 l 2,2,3
 606 329 606 329 484 166 c 0,4,5
 427 90 427 90 348.5 48 c 128,-1,6
 270 6 270 6 185 6 c 2,7,-1
 100 6 l 1,8,-1
 100 165 l 1,9,-1
 185 165 l 2,10,11
 284 165 284 165 356 261 c 0,12,13
 447 382 447 382 447 597 c 2,14,-1
 447 1195 l 1,0,-1
EndSplineSet
Validated: 1
EndChar

StartChar: uniE675
Encoding: 58997 58997 53
Width: 706
VWidth: 1997
GlyphClass: 2
Flags: W
HStem: 6 159<100 305.678> 688 160<282.452 429.6> 1030 159<282.928 429.072>
VStem: 106 159<865.794 1012.32> 447 159<342.88 708 865.585 1011.58>
LayerCount: 2
Fore
SplineSet
356 1189 m 128,-1,1
 453 1189 453 1189 530 1112 c 0,2,3
 606 1036 606 1036 606 939 c 2,4,-1
 606 597 l 2,5,6
 606 331 606 331 484 166 c 0,7,8
 426 87 426 87 348 47 c 0,9,10
 269 6 269 6 185 6 c 2,11,-1
 100 6 l 1,12,-1
 100 165 l 1,13,-1
 185 165 l 2,14,15
 284 165 284 165 356 261 c 0,16,17
 447 382 447 382 447 597 c 2,18,-1
 447 708 l 1,19,20
 401 688 401 688 356 688 c 0,21,22
 257 689 257 689 182 765 c 128,-1,23
 107 841 107 841 106 939 c 0,24,25
 106 940 106 940 106 941 c 0,26,27
 106 1036 106 1036 182 1112 c 0,28,0
 259 1189 259 1189 356 1189 c 128,-1,1
356 1030 m 128,-1,30
 325 1030 325 1030 295 1000 c 128,-1,31
 265 970 265 970 265 939 c 128,-1,32
 265 908 265 908 295 878 c 128,-1,33
 325 848 325 848 356 848 c 128,-1,34
 387 848 387 848 417 878 c 128,-1,35
 447 908 447 908 447 939 c 128,-1,36
 447 970 447 970 417 1000 c 128,-1,29
 387 1030 387 1030 356 1030 c 128,-1,30
EndSplineSet
Validated: 1
EndChar

StartChar: uniE676
Encoding: 58998 58998 54
Width: 882
VWidth: 1980
GlyphClass: 2
Flags: W
HStem: 6 159<100 255.183> 1030 159<627.302 783>
VStem: 362 159<275.046 919.449>
LayerCount: 2
Fore
SplineSet
697 1189 m 2,0,-1
 783 1189 l 1,1,-1
 783 1030 l 1,2,-1
 697 1030 l 2,3,4
 652 1030 652 1030 626.5 1012.5 c 128,-1,5
 601 995 601 995 577 946 c 0,6,7
 521 835 521 835 521 597 c 0,8,9
 521 322 521 322 449 178 c 0,10,11
 409 99 409 99 338.5 52.5 c 128,-1,12
 268 6 268 6 185 6 c 2,13,-1
 100 6 l 1,14,-1
 100 165 l 1,15,-1
 185 165 l 2,16,17
 230 165 230 165 256 182.5 c 128,-1,18
 282 200 282 200 306 249 c 0,19,20
 362 360 362 360 362 597 c 0,21,22
 362 872 362 872 434 1017 c 0,23,24
 474 1096 474 1096 544 1142.5 c 128,-1,25
 614 1189 614 1189 697 1189 c 2,0,-1
EndSplineSet
Validated: 1
EndChar

StartChar: uniE677
Encoding: 58999 58999 55
Width: 882
VWidth: 1980
GlyphClass: 2
Flags: W
HStem: 6 159<628.301 783> 1030 159<100 254.698>
VStem: 362 159<275.463 919.449>
LayerCount: 2
Fore
SplineSet
100 1189 m 1,0,-1
 185 1189 l 2,1,2
 268 1189 268 1189 338.5 1142.5 c 128,-1,3
 409 1096 409 1096 449 1017 c 0,4,5
 521 872 521 872 521 597 c 0,6,7
 521 360 521 360 577 249 c 0,8,9
 602 200 602 200 627.5 182.5 c 128,-1,10
 653 165 653 165 697 165 c 2,11,-1
 783 165 l 1,12,-1
 783 6 l 1,13,-1
 697 6 l 2,14,15
 614 6 614 6 544 52.5 c 128,-1,16
 474 99 474 99 434 178 c 0,17,18
 362 323 362 323 362 597 c 0,19,20
 362 834 362 834 306 946 c 0,21,22
 281 995 281 995 255.5 1012.5 c 128,-1,23
 230 1030 230 1030 185 1030 c 2,24,-1
 100 1030 l 1,25,-1
 100 1189 l 1,0,-1
EndSplineSet
Validated: 1
EndChar

StartChar: uniE678
Encoding: 59000 59000 56
Width: 756
VWidth: 1997
GlyphClass: 2
Flags: W
HStem: 0 21G<447 606> 1030 159<100 305.843>
VStem: 447 159<0 847.163>
LayerCount: 2
Fore
SplineSet
100 1189 m 1,0,-1
 185 1189 l 2,1,2
 241 1189 241 1189 295 1170.5 c 128,-1,3
 349 1152 349 1152 398 1116 c 0,4,5
 445 1081 445 1081 484 1029 c 0,6,7
 606 866 606 866 606 601 c 0,8,9
 606 599 606 599 606 597 c 2,10,-1
 606 0 l 1,11,-1
 447 0 l 1,12,-1
 447 597 l 2,13,14
 447 812 447 812 356 934 c 0,15,16
 284 1030 284 1030 185 1030 c 2,17,-1
 100 1030 l 1,18,-1
 100 1189 l 1,0,-1
EndSplineSet
Validated: 1
EndChar

StartChar: uniE679
Encoding: 59001 59001 57
Width: 750
VWidth: 1997
GlyphClass: 2
Flags: W
HStem: 0 21G<441 600> 688 160<277.347 350 351 423.415> 1030 159<276.966 423.704>
VStem: 100 159<865.928 1012.03> 441 159<0 708 864.812 1012.41>
LayerCount: 2
Fore
SplineSet
350 1189 m 0,0,1
 388 1189 388 1189 424 1176 c 0,2,3
 457 1164 457 1164 488 1143 c 0,4,5
 507 1129 507 1129 524 1112 c 0,6,7
 550 1086 550 1086 568 1056 c 0,8,9
 574 1046 574 1046 579 1035 c 128,-1,10
 584 1024 584 1024 588 1012 c 128,-1,11
 592 1000 592 1000 595 989 c 0,12,13
 598 977 598 977 599 964 c 128,-1,14
 600 951 600 951 600 939 c 2,15,-1
 600 0 l 1,16,-1
 441 0 l 1,17,-1
 441 708 l 1,18,19
 396 688 396 688 350 688 c 0,20,21
 253 688 253 688 176.5 765 c 128,-1,22
 100 842 100 842 100 939 c 128,-1,23
 100 1036 100 1036 176.5 1112.5 c 128,-1,24
 253 1189 253 1189 350 1189 c 0,0,1
350 1030 m 128,-1,26
 319 1030 319 1030 289 1000 c 128,-1,27
 259 970 259 970 259 939 c 128,-1,28
 259 908 259 908 289 878 c 128,-1,29
 319 848 319 848 350 848 c 0,30,31
 351 847 l 0,32,33
 381 848 381 848 411 878 c 128,-1,34
 441 908 441 908 441 939 c 128,-1,35
 441 970 441 970 411 1000 c 128,-1,25
 381 1030 381 1030 350 1030 c 128,-1,26
EndSplineSet
Validated: 1
EndChar

StartChar: uniE67A
Encoding: 59002 59002 58
Width: 756
VWidth: 1997
GlyphClass: 2
Flags: W
HStem: 0 21G<150 309> 1030 159<450.157 656>
VStem: 150 159<0 852.398>
LayerCount: 2
Fore
SplineSet
571 1189 m 2,0,-1
 656 1189 l 1,1,-1
 656 1030 l 1,2,-1
 571 1030 l 2,3,4
 472 1030 472 1030 400 934 c 0,5,6
 309 813 309 813 309 597 c 2,7,-1
 309 0 l 1,8,-1
 150 0 l 1,9,-1
 150 597 l 2,10,11
 150 865 150 865 273 1029 c 0,12,13
 330 1105 330 1105 408.5 1147 c 128,-1,14
 487 1189 487 1189 571 1189 c 2,0,-1
EndSplineSet
Validated: 1
EndChar

StartChar: uniE67B
Encoding: 59003 59003 59
Width: 751
VWidth: 1997
GlyphClass: 2
Flags: W
HStem: 0 21G<150 309> 688 160<326.585 400 401 472.253> 1030 159<327.354 472.729>
VStem: 150 159<0 708 865.585 1011.92> 491 160<866.641 1011.95>
LayerCount: 2
Fore
SplineSet
400 1189 m 0,0,1
 497 1188 497 1188 574 1112 c 128,-1,2
 651 1036 651 1036 651 940 c 0,3,4
 651 939 651 939 651 938 c 128,-1,5
 651 937 651 937 651 936 c 128,-1,6
 651 935 651 935 651 934 c 0,7,8
 651 841 651 841 574 765 c 0,9,10
 496 688 496 688 400 688 c 0,11,12
 354 688 354 688 309 708 c 1,13,-1
 309 0 l 1,14,-1
 150 0 l 1,15,-1
 150 939 l 2,16,17
 150 952 150 952 151 964 c 0,18,19
 155 1000 155 1000 172 1035 c 0,20,21
 192 1077 192 1077 227 1112 c 0,22,23
 253 1138 253 1138 283 1156 c 0,24,25
 315 1175 315 1175 350 1183 c 0,26,27
 375 1189 375 1189 400 1189 c 0,0,1
400 1030 m 0,28,29
 394 1030 394 1030 387 1028 c 0,30,31
 371 1024 371 1024 355 1013 c 0,32,33
 347 1007 347 1007 339.5 1000 c 128,-1,34
 332 993 332 993 326 984 c 0,35,36
 321 976 321 976 317 968 c 128,-1,37
 313 960 313 960 311 952.5 c 128,-1,38
 309 945 309 945 309 939 c 0,39,40
 309 908 309 908 339 878 c 128,-1,41
 369 848 369 848 400 848 c 0,42,-1
 401 847 l 0,43,44
 431 848 431 848 461 878 c 128,-1,45
 491 908 491 908 491 939 c 128,-1,46
 491 970 491 970 461 1000 c 128,-1,47
 431 1030 431 1030 400 1030 c 0,28,29
EndSplineSet
Validated: 1
EndChar

StartChar: uniE67C
Encoding: 59004 59004 60
Width: 871
VWidth: 1997
GlyphClass: 2
Flags: W
HStem: 6 159<338.066 531.899> 1030 159<347.627 531.899>
VStem: 100 159<270.802 923.198> 612 159<270.994 923.207>
LayerCount: 2
Fore
SplineSet
436 1189 m 128,-1,1
 541 1189 541 1189 616 1127 c 0,2,3
 680 1074 680 1074 718 978 c 0,4,5
 771 841 771 841 771 597.5 c 128,-1,6
 771 354 771 354 718 216 c 0,7,8
 681 120 681 120 616 68 c 0,9,10
 541 6 541 6 436 6 c 128,-1,11
 331 6 331 6 255 68 c 0,12,13
 191 121 191 121 153 216 c 0,14,15
 100 353 100 353 100 597 c 128,-1,16
 100 841 100 841 153 978 c 0,17,18
 190 1074 190 1074 255 1127 c 0,19,0
 331 1189 331 1189 436 1189 c 128,-1,1
436 1030 m 128,-1,21
 388 1030 388 1030 356 1004 c 0,22,23
 324 977 324 977 302 920 c 0,24,25
 259 811 259 811 259 597.5 c 128,-1,26
 259 384 259 384 302 274 c 0,27,28
 324 217 324 217 356 191 c 0,29,30
 387 165 387 165 435.5 165 c 128,-1,31
 484 165 484 165 515 191 c 0,32,33
 547 218 547 218 569 274 c 0,34,35
 612 384 612 384 612 597.5 c 128,-1,36
 612 811 612 811 569 920 c 0,37,38
 547 977 547 977 515 1004 c 0,39,20
 484 1030 484 1030 436 1030 c 128,-1,21
EndSplineSet
Validated: 1
EndChar

StartChar: uniE67D
Encoding: 59005 59005 61
Width: 971
VWidth: 1997
GlyphClass: 2
Flags: W
HStem: 6 159<388.066 581.899>
VStem: 150 159<271.137 1195> 662 159<271.137 1195>
LayerCount: 2
Fore
SplineSet
150 1195 m 1,0,-1
 309 1195 l 1,1,-1
 309 597 l 2,2,3
 309 383 309 383 352 274 c 0,4,5
 374 217 374 217 406 191 c 0,6,7
 437 165 437 165 485.5 165 c 128,-1,8
 534 165 534 165 565 191 c 0,9,10
 597 218 597 218 619 274 c 0,11,12
 662 384 662 384 662 597 c 2,13,-1
 662 1195 l 1,14,-1
 821 1195 l 1,15,-1
 821 597 l 2,16,17
 821 353 821 353 768 216 c 0,18,19
 731 120 731 120 666 68 c 0,20,21
 591 6 591 6 486 6 c 128,-1,22
 381 6 381 6 305 68 c 0,23,24
 241 121 241 121 203 216 c 0,25,26
 150 353 150 353 150 597 c 2,27,-1
 150 1195 l 1,0,-1
EndSplineSet
Validated: 1
EndChar

StartChar: uniE67E
Encoding: 59006 59006 62
Width: 971
VWidth: 1997
GlyphClass: 2
Flags: W
HStem: 0 21G<150 309 662 821> 1030 159<397.627 581.899>
VStem: 150 159<0 922.863> 662 159<0 922.863>
LayerCount: 2
Fore
SplineSet
486 1189 m 128,-1,1
 591 1189 591 1189 666 1127 c 0,2,3
 730 1074 730 1074 768 978 c 0,4,5
 821 841 821 841 821 597 c 2,6,-1
 821 0 l 1,7,-1
 662 0 l 1,8,-1
 662 597 l 2,9,10
 662 811 662 811 619 920 c 0,11,12
 597 977 597 977 565 1004 c 0,13,14
 534 1030 534 1030 486 1030 c 128,-1,15
 438 1030 438 1030 406 1004 c 0,16,17
 374 977 374 977 352 920 c 0,18,19
 309 811 309 811 309 597 c 2,20,-1
 309 0 l 1,21,-1
 150 0 l 1,22,-1
 150 597 l 2,23,24
 150 841 150 841 203 978 c 0,25,26
 240 1074 240 1074 305 1127 c 0,27,0
 381 1189 381 1189 486 1189 c 128,-1,1
EndSplineSet
Validated: 1
EndChar

StartChar: uniE67F
Encoding: 59007 59007 63
Width: 459
VWidth: 1997
GlyphClass: 2
Flags: W
HStem: 427 341<150 309>
VStem: 150 159<427 768>
LayerCount: 2
Fore
SplineSet
150 768 m 1,0,-1
 309 768 l 1,1,-1
 309 427 l 1,2,-1
 150 427 l 1,3,-1
 150 768 l 1,0,-1
EndSplineSet
Validated: 1
EndChar

StartChar: uniE66E
Encoding: 58990 58990 65
Width: 1157
VWidth: -64
Flags: W
HStem: -421 159<293 1027>
LayerCount: 2
Fore
SplineSet
911 1652 m 1,0,-1
 1058 1591 l 1,1,-1
 293 -262 l 1,2,-1
 1027 -262 l 1,3,-1
 1027 -421 l 1,4,-1
 174 -421 l 1,5,-1
 100 -311 l 1,6,-1
 911 1652 l 1,0,-1
EndSplineSet
Validated: 1
EndChar

StartChar: uniE66F
Encoding: 58991 58991 66
Width: 1157
VWidth: -64
Flags: W
HStem: 1456 160<131 865>
LayerCount: 2
Fore
SplineSet
131 1616 m 1,0,-1
 984 1616 l 1,1,-1
 1058 1506 l 1,2,-1
 247 -457 l 1,3,-1
 100 -396 l 1,4,-1
 865 1456 l 1,5,-1
 131 1456 l 1,6,-1
 131 1616 l 1,0,-1
EndSplineSet
Validated: 1
EndChar

StartChar: qs_iw
Encoding: 65538 -1 67
Width: 1005
VWidth: -33
Flags: W
HStem: 0 21G<234 393 746 905> 518 159<473.391 666.75> 1030 159<100 234 393 548.912> 1456 160<418.647 550.93>
VStem: 234 159<0 411.533 574 1030 1189 1432.51> 575 159<1211.28 1435.25> 746 159<0 410.863>
LayerCount: 2
Fore
SplineSet
569 677 m 0,0,1
 674 677 674 677 750 615 c 0,2,3
 814 562 814 562 852 466 c 0,4,5
 905 329 905 329 905 85 c 2,6,-1
 905 0 l 1,7,-1
 746 0 l 1,8,-1
 746 85 l 2,9,10
 746 298 746 298 703 408 c 0,11,12
 681 465 681 465 649 492 c 0,13,14
 618 518 618 518 570 518 c 0,15,16
 569 518 l 0,17,-1
 568 518 l 0,18,19
 520 518 520 518 490 492 c 0,20,21
 458 465 458 465 436 408 c 0,22,23
 393 298 393 298 393 85 c 2,24,-1
 393 0 l 1,25,-1
 234 0 l 1,26,-1
 234 85 l 1,27,-1
 234 1030 l 1,28,-1
 100 1030 l 1,29,-1
 100 1189 l 1,30,-1
 234 1189 l 1,31,-1
 234 1323 l 2,32,33
 234 1445 234 1445 307 1530 c 0,34,35
 379 1615 379 1615 484 1616 c 0,36,37
 485 1616 485 1616 486 1616 c 0,38,39
 536 1616 536 1616 581 1593 c 0,40,41
 628 1570 628 1570 661 1531 c 0,42,43
 695 1492 695 1492 715 1437 c 0,44,45
 734 1383 734 1383 734 1323 c 0,46,47
 734 1200 734 1200 661 1115 c 128,-1,48
 588 1030 588 1030 484 1030 c 2,49,-1
 393 1030 l 1,50,-1
 393 574 l 1,51,52
 449 677 449 677 569 677 c 0,0,1
484 1456 m 0,53,54
 471 1456 471 1456 456 1448 c 128,-1,55
 441 1440 441 1440 426.5 1424.5 c 128,-1,56
 412 1409 412 1409 402.5 1382 c 128,-1,57
 393 1355 393 1355 393 1323 c 2,58,-1
 393 1189 l 1,59,-1
 484 1189 l 2,60,61
 514 1189 514 1189 544.5 1224.5 c 128,-1,62
 575 1260 575 1260 575 1322.5 c 128,-1,63
 575 1385 575 1385 544.5 1420.5 c 128,-1,64
 514 1456 514 1456 484 1456 c 0,53,54
EndSplineSet
Validated: 1025
Ligature2: "'liga' Standard Ligatures lookup 0-1" uniE660 uniE67E
EndChar

StartChar: qs_eir
Encoding: 65539 -1 68
Width: 1298
VWidth: -34
Flags: W
HStem: 5 159<436.947 857.504> 688 159<276.248 423.072> 1029 159<276.966 423.072 734 893.263>
VStem: 100 159<354.721 707 864.585 1010.65> 441 160<864.966 1011.03> 1039 159<353.181 848.061>
LayerCount: 2
Fore
SplineSet
350 1188 m 128,-1,1
 447 1188 447 1188 524 1111.5 c 128,-1,2
 601 1035 601 1035 601 938 c 128,-1,3
 601 841 601 841 524 764.5 c 128,-1,4
 447 688 447 688 350 688 c 0,5,6
 304 688 304 688 259 707 c 1,7,-1
 259 597 l 2,8,9
 259 375 259 375 360 267 c 0,10,11
 456 164 456 164 648.5 164 c 128,-1,12
 841 164 841 164 938 267 c 0,13,14
 1039 375 1039 375 1039 597 c 0,15,16
 1039 687 1039 687 1021.5 761.5 c 128,-1,17
 1004 836 1004 836 976.5 884.5 c 128,-1,18
 949 933 949 933 914 966.5 c 128,-1,19
 879 1000 879 1000 844.5 1014.5 c 128,-1,20
 810 1029 810 1029 777 1029 c 2,21,-1
 734 1029 l 1,22,-1
 734 1188 l 1,23,-1
 777 1188 l 2,24,25
 859 1188 859 1188 934.5 1147 c 128,-1,26
 1010 1106 1010 1106 1069 1032 c 128,-1,27
 1128 958 1128 958 1163 844.5 c 128,-1,28
 1198 731 1198 731 1198 597 c 0,29,30
 1198 312 1198 312 1054 158 c 0,31,32
 910 5 910 5 649 5 c 128,-1,33
 388 5 388 5 244 158 c 0,34,35
 100 312 100 312 100 597 c 2,36,-1
 100 938 l 2,37,38
 100 1035 100 1035 176.5 1111.5 c 128,-1,0
 253 1188 253 1188 350 1188 c 128,-1,1
350 1029 m 128,-1,40
 319 1029 319 1029 289 999 c 128,-1,41
 259 969 259 969 259 938 c 128,-1,42
 259 907 259 907 289 877 c 128,-1,43
 319 847 319 847 350 847 c 128,-1,44
 381 847 381 847 411 877 c 128,-1,45
 441 907 441 907 441 938 c 128,-1,46
 441 969 441 969 411 999 c 128,-1,39
 381 1029 381 1029 350 1029 c 128,-1,40
EndSplineSet
Validated: 1025
LCarets2: 1 0
Ligature2: "'liga' Standard Ligatures lookup 0-1" uniE673 uniE668
EndChar

StartChar: qs_aar
Encoding: 65540 -1 69
Width: 1218
VWidth: -34
Flags: W
HStem: 5 159<100 281.515 655 817.843> 1029 159<613.986 818.875>
VStem: 362 159<274.551 918.954> 959 160<340.994 852.006>
LayerCount: 2
Fore
SplineSet
697 1188 m 0,0,1
 781 1188 781 1188 859.5 1146.5 c 128,-1,2
 938 1105 938 1105 996 1028 c 0,3,4
 1119 866 1119 866 1119 599 c 0,5,6
 1119 598 1119 598 1119 596 c 0,7,8
 1119 328 1119 328 996 165 c 0,9,10
 939 89 939 89 860.5 47 c 128,-1,11
 782 5 782 5 697 5 c 2,12,-1
 655 5 l 1,13,-1
 655 164 l 1,14,-1
 697 164 l 2,15,16
 796 164 796 164 868 260 c 0,17,18
 959 381 959 381 959 596.5 c 128,-1,19
 959 812 959 812 868 933 c 0,20,21
 796 1029 796 1029 697 1029 c 0,22,23
 652 1029 652 1029 626.5 1011.5 c 128,-1,24
 601 994 601 994 577 945 c 0,25,26
 521 834 521 834 521 597 c 0,27,28
 521 322 521 322 449 177 c 0,29,30
 409 98 409 98 338.5 51.5 c 128,-1,31
 268 5 268 5 185 5 c 2,32,-1
 100 5 l 1,33,-1
 100 164 l 1,34,-1
 185 164 l 2,35,36
 215 164 215 164 235.5 171.5 c 128,-1,37
 256 179 256 179 272.5 197 c 128,-1,38
 289 215 289 215 306 248 c 0,39,40
 362 359 362 359 362 597 c 0,41,42
 362 872 362 872 434 1016 c 0,43,44
 474 1095 474 1095 544 1141.5 c 128,-1,45
 614 1188 614 1188 697 1188 c 0,0,1
EndSplineSet
Validated: 1
Ligature2: "'liga' Standard Ligatures lookup 0-1" uniE676 uniE668
EndChar

StartChar: qs_oor
Encoding: 65541 -1 70
Width: 1218
VWidth: -34
Flags: W
HStem: 5 159<614.486 818.091> 1029 159<100 254.698 655 817.843>
VStem: 362 159<274.551 918.537> 959 160<340.994 852.006>
LayerCount: 2
Fore
SplineSet
100 1188 m 1,0,-1
 185 1188 l 2,1,2
 268 1188 268 1188 338.5 1141.5 c 128,-1,3
 409 1095 409 1095 449 1016 c 0,4,5
 521 871 521 871 521 597 c 0,6,7
 521 360 521 360 577 248 c 0,8,9
 602 199 602 199 627.5 181.5 c 128,-1,10
 653 164 653 164 697 164 c 0,11,12
 796 164 796 164 868 260 c 0,13,14
 959 381 959 381 959 596.5 c 128,-1,15
 959 812 959 812 868 933 c 0,16,17
 796 1029 796 1029 697 1029 c 2,18,-1
 655 1029 l 1,19,-1
 655 1188 l 1,20,-1
 697 1188 l 2,21,22
 782 1188 782 1188 860 1146 c 128,-1,23
 938 1104 938 1104 996 1028 c 0,24,25
 1119 866 1119 866 1119 599 c 0,26,27
 1119 598 1119 598 1118 596 c 0,28,29
 1118 328 1118 328 996 165 c 0,30,31
 939 89 939 89 860.5 47 c 128,-1,32
 782 5 782 5 697 5 c 0,33,34
 614 5 614 5 544 51.5 c 128,-1,35
 474 98 474 98 434 177 c 0,36,37
 362 322 362 322 362 597 c 0,38,39
 362 834 362 834 306 945 c 0,40,41
 281 994 281 994 255.5 1011.5 c 128,-1,42
 230 1029 230 1029 185 1029 c 2,43,-1
 100 1029 l 1,44,-1
 100 1188 l 1,0,-1
EndSplineSet
Validated: 1
Ligature2: "'liga' Standard Ligatures lookup 0-1" uniE677 uniE668
EndChar

StartChar: qs_ur
Encoding: 65542 -1 71
Width: 1127
VWidth: -34
Flags: W
HStem: 5 160<521 726.843> 1029 160<476.318 722.721>
VStem: 100 159<0 708.966> 868 159<341.365 848.423>
LayerCount: 2
Fore
SplineSet
606 1189 m 0,0,1
 688 1189 688 1189 763.5 1147.5 c 128,-1,2
 839 1106 839 1106 898 1032 c 128,-1,3
 957 958 957 958 992 844.5 c 128,-1,4
 1027 731 1027 731 1027 597 c 0,5,6
 1027 329 1027 329 905 165 c 0,7,8
 848 89 848 89 769.5 47 c 128,-1,9
 691 5 691 5 606 5 c 2,10,-1
 521 5 l 1,11,-1
 521 165 l 1,12,-1
 606 165 l 2,13,14
 705 165 705 165 777 261 c 0,15,16
 868 382 868 382 868 597 c 0,17,18
 868 687 868 687 850.5 762 c 128,-1,19
 833 837 833 837 806 885 c 128,-1,20
 779 933 779 933 743.5 966.5 c 128,-1,21
 708 1000 708 1000 673.5 1014.5 c 128,-1,22
 639 1029 639 1029 606 1029 c 0,23,24
 574 1029 574 1029 541 1018.5 c 128,-1,25
 508 1008 508 1008 467.5 978.5 c 128,-1,26
 427 949 427 949 393 902 c 0,27,28
 259 718 259 718 259 341 c 2,29,-1
 259 0 l 1,30,-1
 100 0 l 1,31,-1
 100 341 l 2,32,33
 100 770 100 770 265 996 c 0,34,35
 335 1093 335 1093 425.5 1141 c 128,-1,36
 516 1189 516 1189 606 1189 c 0,0,1
EndSplineSet
Validated: 1
Ligature2: "'liga' Standard Ligatures lookup 0-1" uniE67A uniE668
EndChar

StartChar: qs_iu
Encoding: 65543 -1 72
Width: 841
VWidth: -34
Flags: W
HStem: 0 21G<150 309> 1029 160<526.27 742>
VStem: 150 159<0 712.4 925 1194>
LayerCount: 2
Fore
SplineSet
656 1189 m 2,0,-1
 742 1189 l 1,1,-1
 742 1029 l 1,2,-1
 656 1029 l 2,3,4
 624 1029 624 1029 591 1018.5 c 128,-1,5
 558 1008 558 1008 517.5 978.5 c 128,-1,6
 477 949 477 949 443 902 c 0,7,8
 309 718 309 718 309 341 c 2,9,-1
 309 0 l 1,10,-1
 150 0 l 1,11,-1
 150 341 l 1,12,-1
 150 1194 l 1,13,-1
 309 1194 l 1,14,-1
 309 925 l 2,15,16
 312 933 l 0,17,18
 349 1027 349 1027 408 1075 c 0,19,20
 546 1189 546 1189 646 1189 c 0,21,22
 649 1189 649 1189 651 1189 c 0,23,24
 653 1189 653 1189 656 1189 c 2,0,-1
EndSplineSet
Validated: 1
Ligature2: "'liga' Standard Ligatures lookup 0-1" uniE670 uniE67A
EndChar

StartChar: qs_iur
Encoding: 65544 -1 73
Width: 1177
VWidth: -34
Flags: W
HStem: 5 160<571 776.843> 1029 160<527.287 777.875>
VStem: 150 159<0 712.4 924 1194> 918 160<341.944 850.15>
LayerCount: 2
Fore
SplineSet
656 1189 m 0,0,1
 740 1189 740 1189 818.5 1147 c 128,-1,2
 897 1105 897 1105 955 1029 c 0,3,4
 1078 867 1078 867 1078 600 c 0,5,6
 1078 330 1078 330 955 165 c 0,7,8
 898 89 898 89 819.5 47 c 128,-1,9
 741 5 741 5 656 5 c 2,10,-1
 571 5 l 1,11,-1
 571 165 l 1,12,-1
 656 165 l 2,13,14
 755 165 755 165 827 261 c 0,15,16
 918 382 918 382 918 597 c 128,-1,17
 918 812 918 812 827 933 c 0,18,19
 755 1029 755 1029 656 1029 c 0,20,21
 624 1029 624 1029 591 1018.5 c 128,-1,22
 558 1008 558 1008 517.5 978.5 c 128,-1,23
 477 949 477 949 443 902 c 0,24,25
 309 718 309 718 309 341 c 2,26,-1
 309 0 l 1,27,-1
 150 0 l 1,28,-1
 150 341 l 1,29,-1
 150 1194 l 1,30,-1
 309 1194 l 1,31,-1
 309 924 l 2,32,33
 312 932 l 4,34,35
 347 1026 347 1026 408 1075 c 0,36,37
 548 1189 548 1189 656 1189 c 0,0,1
EndSplineSet
Validated: 1
Ligature2: "'liga' Standard Ligatures lookup 0-1" uniE670 uniE67A uniE668
EndChar

StartChar: uniE680
Encoding: 59008 59008 74
Width: 750
VWidth: -32
Flags: W
HStem: 6 159<400.157 606> 1030 159<404.737 606>
VStem: 100 159<341.506 848.531>
LayerCount: 2
Fore
SplineSet
521 1189 m 2,0,-1
 606 1189 l 1,1,-1
 606 1030 l 1,2,-1
 521 1030 l 2,3,4
 488 1030 488 1030 453.5 1015.5 c 128,-1,5
 419 1001 419 1001 384 967.5 c 128,-1,6
 349 934 349 934 321.5 885.5 c 128,-1,7
 294 837 294 837 276.5 762 c 128,-1,8
 259 687 259 687 259 597 c 0,9,10
 259 382 259 382 350 261 c 0,11,12
 422 165 422 165 521 165 c 2,13,-1
 606 165 l 1,14,-1
 606 6 l 1,15,-1
 521 6 l 2,16,17
 437 6 437 6 358.5 47.5 c 128,-1,18
 280 89 280 89 223 166 c 0,19,20
 100 329 100 329 100 597 c 0,21,22
 100 731 100 731 135 844.5 c 128,-1,23
 170 958 170 958 229 1032.5 c 128,-1,24
 288 1107 288 1107 363.5 1148 c 128,-1,25
 439 1189 439 1189 521 1189 c 2,0,-1
EndSplineSet
Validated: 1
EndChar

StartChar: uniE681
Encoding: 59009 59009 75
Width: 750
VWidth: -16
Flags: W
HStem: 0 21G<457 617>
VStem: 457 160<0 975>
LayerCount: 2
Fore
SplineSet
484 1212 m 1,0,-1
 617 1152 l 1,1,-1
 617 0 l 1,2,-1
 457 0 l 1,3,-1
 457 975 l 1,4,-1
 206 751 l 1,5,-1
 100 870 l 1,6,-1
 484 1212 l 1,0,-1
EndSplineSet
Validated: 1
EndChar

StartChar: uniE682
Encoding: 59010 59010 76
Width: 750
VWidth: -16
Flags: W
HStem: 0 21G<150 309 491 651> 518 159<347.783 454.334>
VStem: 150 159<0 500.688 603 1195> 491 160<0 500.429>
LayerCount: 2
Fore
SplineSet
150 1195 m 1,0,-1
 309 1195 l 1,1,-1
 309 603 l 1,2,3
 329 677 329 677 400 677 c 0,4,5
 491 677 491 677 553 621 c 0,6,7
 602 576 602 576 626 498 c 0,8,9
 643 443 643 443 651 268 c 0,10,11
 651 260 651 260 651 256 c 2,12,-1
 651 0 l 1,13,-1
 491 0 l 1,14,-1
 491 256 l 2,15,16
 491 396 491 396 474 451 c 0,17,18
 462 488 462 488 445 503 c 0,19,20
 429 518 429 518 400 518 c 0,21,22
 362 518 362 518 355 503 c 0,23,24
 347 485 347 485 327 451 c 0,25,26
 309 421 309 421 309 256 c 2,27,-1
 309 0 l 1,28,-1
 150 0 l 1,29,-1
 150 256 l 1,30,-1
 150 1195 l 1,0,-1
EndSplineSet
Validated: 1
EndChar

StartChar: uniE683
Encoding: 59011 59011 77
Width: 750
VWidth: -16
Flags: W
HStem: 6 159<345.834 454.666>
VStem: 150 159<180.157 1195> 491 160<180.157 683>
LayerCount: 2
Fore
SplineSet
150 1195 m 1,0,-1
 309 1195 l 1,1,-1
 309 768 l 1,2,-1
 309 427 l 2,3,4
 309 290 309 290 327 231 c 0,5,6
 338 195 338 195 355 179 c 0,7,8
 371 165 371 165 400 165 c 128,-1,9
 429 165 429 165 445 179 c 0,10,11
 462 195 462 195 474 231 c 0,12,13
 491 286 491 286 491 413 c 0,14,15
 491 420 491 420 491 427 c 2,16,-1
 491 683 l 1,17,-1
 651 683 l 1,18,-1
 651 427 l 1,19,-1
 651 412 l 2,20,21
 651 266 651 266 626 185 c 0,22,23
 602 107 602 107 553 62 c 0,24,25
 492 6 492 6 400.5 6 c 128,-1,26
 309 6 309 6 248 62 c 0,27,28
 199 107 199 107 175 185 c 0,29,30
 150 266 150 266 150 412 c 2,31,-1
 150 427 l 1,32,-1
 150 768 l 1,33,-1
 150 1195 l 1,0,-1
EndSplineSet
Validated: 1
EndChar

StartChar: uniE684
Encoding: 59012 59012 78
Width: 749
VWidth: -16
Flags: W
HStem: 0 21G<465 625>
VStem: 124 159<619 1195> 465 160<0 576>
LayerCount: 2
Fore
SplineSet
124 1195 m 1,0,-1
 283 1195 l 1,1,-1
 283 619 l 1,2,-1
 489 824 l 1,3,-1
 625 768 l 1,4,-1
 625 0 l 1,5,-1
 465 0 l 1,6,-1
 465 576 l 1,7,-1
 260 370 l 1,8,-1
 124 427 l 1,9,-1
 124 1195 l 1,0,-1
EndSplineSet
Validated: 1
EndChar

StartChar: uniE685
Encoding: 59013 59013 79
Width: 750
VWidth: -32
Flags: W
HStem: 6 159<150 443.854> 518 159<315 445.356>
VStem: 156 159<677 1195> 497 159<220.621 464.778>
LayerCount: 2
Fore
SplineSet
156 1195 m 1,0,-1
 315 1195 l 1,1,-1
 315 677 l 1,2,-1
 321 677 l 2,3,4
 360 677 360 677 396.5 669.5 c 128,-1,5
 433 662 433 662 464.5 648 c 128,-1,6
 496 634 496 634 523.5 614.5 c 128,-1,7
 551 595 551 595 572 571 c 0,8,9
 656 476 656 476 656 341.5 c 128,-1,10
 656 207 656 207 572 113 c 0,11,12
 528 63 528 63 463 34.5 c 128,-1,13
 398 6 398 6 321 6 c 2,14,-1
 150 6 l 1,15,-1
 150 165 l 1,16,-1
 321 165 l 2,17,18
 406 165 406 165 453 219 c 0,19,20
 497 268 497 268 497 341.5 c 128,-1,21
 497 415 497 415 453 465 c 0,22,23
 406 518 406 518 321 518 c 2,24,-1
 156 518 l 1,25,-1
 156 1195 l 1,0,-1
EndSplineSet
Validated: 1
EndChar

StartChar: uniE686
Encoding: 59014 59014 80
Width: 749
VWidth: -16
Flags: W
HStem: 6 159<321.953 426.618> 518 159<353.42 426.618>
VStem: 124 159<181.347 502.287> 465 160<180.753 502.071>
LayerCount: 2
Fore
SplineSet
340 1216 m 1,0,-1
 494 1174 l 1,1,2
 409 862 409 862 353 675 c 1,3,4
 369 677 369 677 374 677 c 0,5,6
 418 677 418 677 458.5 660.5 c 128,-1,7
 499 644 499 644 528.5 617 c 128,-1,8
 558 590 558 590 577 556 c 0,9,10
 624 472 624 472 624 342 c 0,11,12
 624 341 624 341 625 339 c 0,13,14
 625 211 625 211 577 127 c 0,15,16
 558 93 558 93 528.5 66 c 128,-1,17
 499 39 499 39 458.5 22.5 c 128,-1,18
 418 6 418 6 374 6 c 0,19,20
 309 6 309 6 255 40 c 128,-1,21
 201 74 201 74 171 127 c 0,22,23
 124 212 124 212 124 341 c 0,24,25
 124 386 124 386 126 417.5 c 128,-1,26
 128 449 128 449 139 504 c 128,-1,27
 150 559 150 559 171 623 c 0,28,29
 188 673 188 673 230 821 c 128,-1,30
 272 969 272 969 306 1092 c 2,31,-1
 340 1216 l 1,0,-1
374 518 m 128,-1,33
 347 518 347 518 335.5 510 c 128,-1,34
 324 502 324 502 311 479 c 0,35,36
 284 430 284 430 284 342 c 0,37,38
 284 340 284 340 283 338 c 0,39,40
 283 252 283 252 311 204 c 0,41,42
 324 181 324 181 335.5 173 c 128,-1,43
 347 165 347 165 374 165 c 128,-1,44
 401 165 401 165 413 173 c 128,-1,45
 425 181 425 181 438 204 c 0,46,47
 465 253 465 253 465 341.5 c 128,-1,48
 465 430 465 430 438 479 c 0,49,50
 425 502 425 502 413 510 c 128,-1,32
 401 518 401 518 374 518 c 128,-1,33
EndSplineSet
Validated: 1025
EndChar

StartChar: uniE687
Encoding: 59015 59015 81
Width: 750
VWidth: -32
Flags: W
HStem: 0 21G<100 259 441 601> 517.5 159.5<305.503 394.497>
VStem: 100 159<0 500.429> 441 160<0 501.98 659 1195>
LayerCount: 2
Fore
SplineSet
441 1195 m 1,0,-1
 601 1195 l 1,1,-1
 601 256 l 1,2,-1
 601 0 l 1,3,-1
 441 0 l 1,4,-1
 441 256 l 2,5,6
 441 393 441 393 424 451 c 0,7,8
 413 487 413 487 395 503 c 0,9,10
 379 517 379 517 350 517.5 c 128,-1,11
 321 518 321 518 305 503 c 0,12,13
 288 487 288 487 277 451 c 0,14,15
 259 393 259 393 259 256 c 2,16,-1
 259 0 l 1,17,-1
 100 0 l 1,18,-1
 100 256 l 1,19,20
 100 271 l 2,21,22
 100 417 100 417 125 498 c 0,23,24
 149 576 149 576 198 621 c 0,25,26
 259 677 259 677 350 677 c 0,27,28
 397 677 397 677 441 659 c 1,29,-1
 441 1195 l 1,0,-1
EndSplineSet
Validated: 1
EndChar

StartChar: uniE688
Encoding: 59016 59016 82
Width: 750
VWidth: -32
Flags: W
HStem: 6 159<312.149 606> 518 159<314.931 521> 1030 159<312.325 606>
VStem: 100 159<219.938 460.563 730.222 974.379>
CounterMasks: 1 e0
LayerCount: 2
Fore
SplineSet
436 1189 m 2,0,-1
 606 1189 l 1,1,-1
 606 1030 l 1,2,-1
 436 1030 l 2,3,4
 351 1030 351 1030 303 976 c 0,5,6
 259 927 259 927 259 853.5 c 128,-1,7
 259 780 259 780 303 730 c 0,8,9
 350 677 350 677 436 677 c 2,10,-1
 521 677 l 1,11,-1
 521 518 l 1,12,-1
 436 518 l 2,13,14
 352 518 352 518 304 463 c 0,15,16
 260 413 260 413 259 341 c 0,17,18
 259 267 259 267 303 218 c 0,19,20
 350 165 350 165 436 165 c 2,21,-1
 606 165 l 1,22,-1
 606 6 l 1,23,-1
 436 6 l 2,24,25
 359 6 359 6 293.5 34.5 c 128,-1,26
 228 63 228 63 184 112 c 0,27,28
 100 207 100 207 100 341 c 0,29,30
 100 472 100 472 184 568 c 0,31,32
 196 581 196 581 213 597 c 1,33,34
 196 612 196 612 184 624 c 0,35,36
 100 719 100 719 100 853.5 c 128,-1,37
 100 988 100 988 184 1082 c 0,38,39
 228 1132 228 1132 293.5 1160.5 c 128,-1,40
 359 1189 359 1189 436 1189 c 2,0,-1
EndSplineSet
Validated: 1
EndChar

StartChar: uniE689
Encoding: 59017 59017 83
Width: 750
VWidth: -16
Flags: W
HStem: 0 21G<441 601> 518 159<312.149 441> 1030 159<312.325 606>
VStem: 100 159<730.222 974.379> 441 160<0 518>
LayerCount: 2
Fore
SplineSet
436 1189 m 2,0,-1
 606 1189 l 1,1,-1
 606 1030 l 1,2,-1
 436 1030 l 2,3,4
 351 1030 351 1030 303 976 c 0,5,6
 259 927 259 927 259 853.5 c 128,-1,7
 259 780 259 780 303 730 c 0,8,9
 350 677 350 677 436 677 c 2,10,-1
 601 677 l 1,11,-1
 601 0 l 1,12,-1
 441 0 l 1,13,-1
 441 518 l 1,14,-1
 436 518 l 2,15,16
 359 518 359 518 293.5 546.5 c 128,-1,17
 228 575 228 575 184 624 c 0,18,19
 100 719 100 719 100 853.5 c 128,-1,20
 100 988 100 988 184 1082 c 0,21,22
 228 1132 228 1132 293.5 1160.5 c 128,-1,23
 359 1189 359 1189 436 1189 c 2,0,-1
EndSplineSet
Validated: 1
EndChar

StartChar: A
Encoding: 65 65 84
Width: 2048
VWidth: 0
LayerCount: 2
Fore
SplineSet
0 949.872070312 m 1,0,-1
 0 1289.83984375 l 1,1,-1
 339.967773438 1289.83984375 l 1,2,-1
 339.967773438 949.872070312 l 1,3,-1
 0 949.872070312 l 1,0,-1
112.639648438 1412.71972656 m 1,4,-1
 112.639648438 1638 l 1,5,-1
 225.280273438 1638 l 1,6,-1
 225.280273438 1412.71972656 l 1,7,-1
 112.639648438 1412.71972656 l 1,4,-1
EndSplineSet
Validated: 524289
EndChar

StartChar: B
Encoding: 66 66 85
Width: 2048
VWidth: 0
LayerCount: 2
Fore
SplineSet
0 609.904296875 m 1,0,-1
 0 949.872070312 l 1,1,-1
 339.967773438 949.872070312 l 1,2,-1
 339.967773438 609.904296875 l 1,3,-1
 0 609.904296875 l 1,0,-1
112.639648438 1412.71972656 m 1,4,-1
 112.639648438 1638 l 1,5,-1
 225.280273438 1638 l 1,6,-1
 225.280273438 1412.71972656 l 1,7,-1
 112.639648438 1412.71972656 l 1,4,-1
EndSplineSet
Validated: 524289
EndChar

StartChar: C
Encoding: 67 67 86
Width: 2048
VWidth: 0
LayerCount: 2
Fore
SplineSet
0 269.935546875 m 1,0,-1
 0 609.904296875 l 1,1,-1
 339.967773438 609.904296875 l 1,2,-1
 339.967773438 269.935546875 l 1,3,-1
 0 269.935546875 l 1,0,-1
112.639648438 1412.71972656 m 1,4,-1
 112.639648438 1638 l 1,5,-1
 225.280273438 1638 l 1,6,-1
 225.280273438 1412.71972656 l 1,7,-1
 112.639648438 1412.71972656 l 1,4,-1
EndSplineSet
Validated: 524289
EndChar

StartChar: D
Encoding: 68 68 87
Width: 2048
VWidth: 0
LayerCount: 2
Fore
SplineSet
0 -70.0322265625 m 1,0,-1
 0 269.935546875 l 1,1,-1
 339.967773438 269.935546875 l 1,2,-1
 339.967773438 -70.0322265625 l 1,3,-1
 0 -70.0322265625 l 1,0,-1
112.639648438 1412.71972656 m 1,4,-1
 112.639648438 1638 l 1,5,-1
 225.280273438 1638 l 1,6,-1
 225.280273438 1412.71972656 l 1,7,-1
 112.639648438 1412.71972656 l 1,4,-1
EndSplineSet
Validated: 524289
EndChar

StartChar: E
Encoding: 69 69 88
Width: 2048
VWidth: 0
LayerCount: 2
Fore
SplineSet
0 -410 m 1,0,-1
 0 -70.0322265625 l 1,1,-1
 339.967773438 -70.0322265625 l 1,2,-1
 339.967773438 -410 l 1,3,-1
 0 -410 l 1,0,-1
112.639648438 1412.71972656 m 1,4,-1
 112.639648438 1638 l 1,5,-1
 225.280273438 1638 l 1,6,-1
 225.280273438 1412.71972656 l 1,7,-1
 112.639648438 1412.71972656 l 1,4,-1
EndSplineSet
Validated: 524289
EndChar

StartChar: F
Encoding: 70 70 89
Width: 2048
VWidth: 0
LayerCount: 2
Fore
SplineSet
0 609.904296875 m 1,0,-1
 0 949.872070312 l 1,1,-1
 339.967773438 949.872070312 l 1,2,-1
 339.967773438 609.904296875 l 1,3,-1
 0 609.904296875 l 1,0,-1
0 949.872070312 m 1,4,-1
 0 1289.83984375 l 1,5,-1
 339.967773438 1289.83984375 l 1,6,-1
 339.967773438 949.872070312 l 1,7,-1
 0 949.872070312 l 1,4,-1
112.639648438 1412.71972656 m 1,8,-1
 112.639648438 1638 l 1,9,-1
 225.280273438 1638 l 1,10,-1
 225.280273438 1412.71972656 l 1,11,-1
 112.639648438 1412.71972656 l 1,8,-1
EndSplineSet
Validated: 526341
EndChar

StartChar: G
Encoding: 71 71 90
Width: 2048
VWidth: 0
LayerCount: 2
Fore
SplineSet
0 269.935546875 m 1,0,-1
 0 609.904296875 l 1,1,-1
 339.967773438 609.904296875 l 1,2,-1
 339.967773438 269.935546875 l 1,3,-1
 0 269.935546875 l 1,0,-1
0 609.904296875 m 1,4,-1
 0 949.872070312 l 1,5,-1
 339.967773438 949.872070312 l 1,6,-1
 339.967773438 609.904296875 l 1,7,-1
 0 609.904296875 l 1,4,-1
112.639648438 1412.71972656 m 1,8,-1
 112.639648438 1638 l 1,9,-1
 225.280273438 1638 l 1,10,-1
 225.280273438 1412.71972656 l 1,11,-1
 112.639648438 1412.71972656 l 1,8,-1
EndSplineSet
Validated: 526341
EndChar

StartChar: H
Encoding: 72 72 91
Width: 2048
VWidth: 0
LayerCount: 2
Fore
SplineSet
0 -70.0322265625 m 1,0,-1
 0 269.935546875 l 1,1,-1
 339.967773438 269.935546875 l 1,2,-1
 339.967773438 -70.0322265625 l 1,3,-1
 0 -70.0322265625 l 1,0,-1
0 269.935546875 m 1,4,-1
 0 609.904296875 l 1,5,-1
 339.967773438 609.904296875 l 1,6,-1
 339.967773438 269.935546875 l 1,7,-1
 0 269.935546875 l 1,4,-1
112.639648438 1412.71972656 m 1,8,-1
 112.639648438 1638 l 1,9,-1
 225.280273438 1638 l 1,10,-1
 225.280273438 1412.71972656 l 1,11,-1
 112.639648438 1412.71972656 l 1,8,-1
EndSplineSet
Validated: 526341
EndChar

StartChar: I
Encoding: 73 73 92
Width: 2048
VWidth: 0
LayerCount: 2
Fore
SplineSet
0 -410 m 1,0,-1
 0 -70.0322265625 l 1,1,-1
 339.967773438 -70.0322265625 l 1,2,-1
 339.967773438 -410 l 1,3,-1
 0 -410 l 1,0,-1
0 -70.0322265625 m 1,4,-1
 0 269.935546875 l 1,5,-1
 339.967773438 269.935546875 l 1,6,-1
 339.967773438 -70.0322265625 l 1,7,-1
 0 -70.0322265625 l 1,4,-1
112.639648438 1412.71972656 m 1,8,-1
 112.639648438 1638 l 1,9,-1
 225.280273438 1638 l 1,10,-1
 225.280273438 1412.71972656 l 1,11,-1
 112.639648438 1412.71972656 l 1,8,-1
EndSplineSet
Validated: 526341
EndChar

StartChar: J
Encoding: 74 74 93
Width: 2048
VWidth: 0
LayerCount: 2
Fore
SplineSet
0 269.935546875 m 1,0,-1
 0 609.904296875 l 1,1,-1
 339.967773438 609.904296875 l 1,2,-1
 339.967773438 269.935546875 l 1,3,-1
 0 269.935546875 l 1,0,-1
0 949.872070312 m 1,4,-1
 0 1289.83984375 l 1,5,-1
 339.967773438 1289.83984375 l 1,6,-1
 339.967773438 949.872070312 l 1,7,-1
 0 949.872070312 l 1,4,-1
112.639648438 1412.71972656 m 1,8,-1
 112.639648438 1638 l 1,9,-1
 225.280273438 1638 l 1,10,-1
 225.280273438 1412.71972656 l 1,11,-1
 112.639648438 1412.71972656 l 1,8,-1
EndSplineSet
Validated: 526337
EndChar

StartChar: K
Encoding: 75 75 94
Width: 2048
VWidth: 0
LayerCount: 2
Fore
SplineSet
0 -70.0322265625 m 1,0,-1
 0 269.935546875 l 1,1,-1
 339.967773438 269.935546875 l 1,2,-1
 339.967773438 -70.0322265625 l 1,3,-1
 0 -70.0322265625 l 1,0,-1
0 609.904296875 m 1,4,-1
 0 949.872070312 l 1,5,-1
 339.967773438 949.872070312 l 1,6,-1
 339.967773438 609.904296875 l 1,7,-1
 0 609.904296875 l 1,4,-1
112.639648438 1412.71972656 m 1,8,-1
 112.639648438 1638 l 1,9,-1
 225.280273438 1638 l 1,10,-1
 225.280273438 1412.71972656 l 1,11,-1
 112.639648438 1412.71972656 l 1,8,-1
EndSplineSet
Validated: 526337
EndChar

StartChar: L
Encoding: 76 76 95
Width: 2048
VWidth: 0
LayerCount: 2
Fore
SplineSet
0 -410 m 1,0,-1
 0 -70.0322265625 l 1,1,-1
 339.967773438 -70.0322265625 l 1,2,-1
 339.967773438 -410 l 1,3,-1
 0 -410 l 1,0,-1
0 269.935546875 m 1,4,-1
 0 609.904296875 l 1,5,-1
 339.967773438 609.904296875 l 1,6,-1
 339.967773438 269.935546875 l 1,7,-1
 0 269.935546875 l 1,4,-1
112.639648438 1412.71972656 m 1,8,-1
 112.639648438 1638 l 1,9,-1
 225.280273438 1638 l 1,10,-1
 225.280273438 1412.71972656 l 1,11,-1
 112.639648438 1412.71972656 l 1,8,-1
EndSplineSet
Validated: 526337
EndChar

StartChar: M
Encoding: 77 77 96
Width: 2048
VWidth: 0
LayerCount: 2
Fore
SplineSet
0 -70.0322265625 m 1,0,-1
 0 269.935546875 l 1,1,-1
 339.967773438 269.935546875 l 1,2,-1
 339.967773438 -70.0322265625 l 1,3,-1
 0 -70.0322265625 l 1,0,-1
0 949.872070312 m 1,4,-1
 0 1289.83984375 l 1,5,-1
 339.967773438 1289.83984375 l 1,6,-1
 339.967773438 949.872070312 l 1,7,-1
 0 949.872070312 l 1,4,-1
112.639648438 1412.71972656 m 1,8,-1
 112.639648438 1638 l 1,9,-1
 225.280273438 1638 l 1,10,-1
 225.280273438 1412.71972656 l 1,11,-1
 112.639648438 1412.71972656 l 1,8,-1
EndSplineSet
Validated: 526337
EndChar

StartChar: N
Encoding: 78 78 97
Width: 2048
VWidth: 0
LayerCount: 2
Fore
SplineSet
0 -410 m 1,0,-1
 0 -70.0322265625 l 1,1,-1
 339.967773438 -70.0322265625 l 1,2,-1
 339.967773438 -410 l 1,3,-1
 0 -410 l 1,0,-1
0 609.904296875 m 1,4,-1
 0 949.872070312 l 1,5,-1
 339.967773438 949.872070312 l 1,6,-1
 339.967773438 609.904296875 l 1,7,-1
 0 609.904296875 l 1,4,-1
112.639648438 1412.71972656 m 1,8,-1
 112.639648438 1638 l 1,9,-1
 225.280273438 1638 l 1,10,-1
 225.280273438 1412.71972656 l 1,11,-1
 112.639648438 1412.71972656 l 1,8,-1
EndSplineSet
Validated: 526337
EndChar

StartChar: O
Encoding: 79 79 98
Width: 2048
VWidth: 0
LayerCount: 2
Fore
SplineSet
0 -410 m 1,0,-1
 0 -70.0322265625 l 1,1,-1
 339.967773438 -70.0322265625 l 1,2,-1
 339.967773438 -410 l 1,3,-1
 0 -410 l 1,0,-1
0 949.872070312 m 1,4,-1
 0 1289.83984375 l 1,5,-1
 339.967773438 1289.83984375 l 1,6,-1
 339.967773438 949.872070312 l 1,7,-1
 0 949.872070312 l 1,4,-1
112.639648438 1412.71972656 m 1,8,-1
 112.639648438 1638 l 1,9,-1
 225.280273438 1638 l 1,10,-1
 225.280273438 1412.71972656 l 1,11,-1
 112.639648438 1412.71972656 l 1,8,-1
EndSplineSet
Validated: 526337
EndChar

StartChar: P
Encoding: 80 80 99
Width: 2048
VWidth: 0
LayerCount: 2
Fore
SplineSet
0 269.935546875 m 1,0,-1
 0 609.904296875 l 1,1,-1
 339.967773438 609.904296875 l 1,2,-1
 339.967773438 269.935546875 l 1,3,-1
 0 269.935546875 l 1,0,-1
0 609.904296875 m 1,4,-1
 0 949.872070312 l 1,5,-1
 339.967773438 949.872070312 l 1,6,-1
 339.967773438 609.904296875 l 1,7,-1
 0 609.904296875 l 1,4,-1
0 949.872070312 m 1,8,-1
 0 1289.83984375 l 1,9,-1
 339.967773438 1289.83984375 l 1,10,-1
 339.967773438 949.872070312 l 1,11,-1
 0 949.872070312 l 1,8,-1
112.639648438 1412.71972656 m 1,12,-1
 112.639648438 1638 l 1,13,-1
 225.280273438 1638 l 1,14,-1
 225.280273438 1412.71972656 l 1,15,-1
 112.639648438 1412.71972656 l 1,12,-1
EndSplineSet
Validated: 526341
EndChar

StartChar: Q
Encoding: 81 81 100
Width: 2048
VWidth: 0
LayerCount: 2
Fore
SplineSet
0 -70.0322265625 m 1,0,-1
 0 269.935546875 l 1,1,-1
 339.967773438 269.935546875 l 1,2,-1
 339.967773438 -70.0322265625 l 1,3,-1
 0 -70.0322265625 l 1,0,-1
0 609.904296875 m 1,4,-1
 0 949.872070312 l 1,5,-1
 339.967773438 949.872070312 l 1,6,-1
 339.967773438 609.904296875 l 1,7,-1
 0 609.904296875 l 1,4,-1
0 949.872070312 m 1,8,-1
 0 1289.83984375 l 1,9,-1
 339.967773438 1289.83984375 l 1,10,-1
 339.967773438 949.872070312 l 1,11,-1
 0 949.872070312 l 1,8,-1
112.639648438 1412.71972656 m 1,12,-1
 112.639648438 1638 l 1,13,-1
 225.280273438 1638 l 1,14,-1
 225.280273438 1412.71972656 l 1,15,-1
 112.639648438 1412.71972656 l 1,12,-1
EndSplineSet
Validated: 526341
EndChar

StartChar: R
Encoding: 82 82 101
Width: 2048
VWidth: 0
LayerCount: 2
Fore
SplineSet
0 -70.0322265625 m 1,0,-1
 0 269.935546875 l 1,1,-1
 339.967773438 269.935546875 l 1,2,-1
 339.967773438 -70.0322265625 l 1,3,-1
 0 -70.0322265625 l 1,0,-1
0 269.935546875 m 1,4,-1
 0 609.904296875 l 1,5,-1
 339.967773438 609.904296875 l 1,6,-1
 339.967773438 269.935546875 l 1,7,-1
 0 269.935546875 l 1,4,-1
0 949.872070312 m 1,8,-1
 0 1289.83984375 l 1,9,-1
 339.967773438 1289.83984375 l 1,10,-1
 339.967773438 949.872070312 l 1,11,-1
 0 949.872070312 l 1,8,-1
112.639648438 1412.71972656 m 1,12,-1
 112.639648438 1638 l 1,13,-1
 225.280273438 1638 l 1,14,-1
 225.280273438 1412.71972656 l 1,15,-1
 112.639648438 1412.71972656 l 1,12,-1
EndSplineSet
Validated: 526341
EndChar

StartChar: S
Encoding: 83 83 102
Width: 2048
VWidth: 0
LayerCount: 2
Fore
SplineSet
0 -70.0322265625 m 1,0,-1
 0 269.935546875 l 1,1,-1
 339.967773438 269.935546875 l 1,2,-1
 339.967773438 -70.0322265625 l 1,3,-1
 0 -70.0322265625 l 1,0,-1
0 269.935546875 m 1,4,-1
 0 609.904296875 l 1,5,-1
 339.967773438 609.904296875 l 1,6,-1
 339.967773438 269.935546875 l 1,7,-1
 0 269.935546875 l 1,4,-1
0 609.904296875 m 1,8,-1
 0 949.872070312 l 1,9,-1
 339.967773438 949.872070312 l 1,10,-1
 339.967773438 609.904296875 l 1,11,-1
 0 609.904296875 l 1,8,-1
112.639648438 1412.71972656 m 1,12,-1
 112.639648438 1638 l 1,13,-1
 225.280273438 1638 l 1,14,-1
 225.280273438 1412.71972656 l 1,15,-1
 112.639648438 1412.71972656 l 1,12,-1
EndSplineSet
Validated: 526341
EndChar

StartChar: T
Encoding: 84 84 103
Width: 2048
VWidth: 0
LayerCount: 2
Fore
SplineSet
0 -410 m 1,0,-1
 0 -70.0322265625 l 1,1,-1
 339.967773438 -70.0322265625 l 1,2,-1
 339.967773438 -410 l 1,3,-1
 0 -410 l 1,0,-1
0 269.935546875 m 1,4,-1
 0 609.904296875 l 1,5,-1
 339.967773438 609.904296875 l 1,6,-1
 339.967773438 269.935546875 l 1,7,-1
 0 269.935546875 l 1,4,-1
0 609.904296875 m 1,8,-1
 0 949.872070312 l 1,9,-1
 339.967773438 949.872070312 l 1,10,-1
 339.967773438 609.904296875 l 1,11,-1
 0 609.904296875 l 1,8,-1
112.639648438 1412.71972656 m 1,12,-1
 112.639648438 1638 l 1,13,-1
 225.280273438 1638 l 1,14,-1
 225.280273438 1412.71972656 l 1,15,-1
 112.639648438 1412.71972656 l 1,12,-1
EndSplineSet
Validated: 526341
EndChar

StartChar: U
Encoding: 85 85 104
Width: 2048
VWidth: 0
LayerCount: 2
Fore
SplineSet
0 -410 m 1,0,-1
 0 -70.0322265625 l 1,1,-1
 339.967773438 -70.0322265625 l 1,2,-1
 339.967773438 -410 l 1,3,-1
 0 -410 l 1,0,-1
0 -70.0322265625 m 1,4,-1
 0 269.935546875 l 1,5,-1
 339.967773438 269.935546875 l 1,6,-1
 339.967773438 -70.0322265625 l 1,7,-1
 0 -70.0322265625 l 1,4,-1
0 609.904296875 m 1,8,-1
 0 949.872070312 l 1,9,-1
 339.967773438 949.872070312 l 1,10,-1
 339.967773438 609.904296875 l 1,11,-1
 0 609.904296875 l 1,8,-1
112.639648438 1412.71972656 m 1,12,-1
 112.639648438 1638 l 1,13,-1
 225.280273438 1638 l 1,14,-1
 225.280273438 1412.71972656 l 1,15,-1
 112.639648438 1412.71972656 l 1,12,-1
EndSplineSet
Validated: 526341
EndChar

StartChar: V
Encoding: 86 86 105
Width: 2048
VWidth: 0
LayerCount: 2
Fore
SplineSet
0 -410 m 1,0,-1
 0 -70.0322265625 l 1,1,-1
 339.967773438 -70.0322265625 l 1,2,-1
 339.967773438 -410 l 1,3,-1
 0 -410 l 1,0,-1
0 -70.0322265625 m 1,4,-1
 0 269.935546875 l 1,5,-1
 339.967773438 269.935546875 l 1,6,-1
 339.967773438 -70.0322265625 l 1,7,-1
 0 -70.0322265625 l 1,4,-1
0 269.935546875 m 1,8,-1
 0 609.904296875 l 1,9,-1
 339.967773438 609.904296875 l 1,10,-1
 339.967773438 269.935546875 l 1,11,-1
 0 269.935546875 l 1,8,-1
112.639648438 1412.71972656 m 1,12,-1
 112.639648438 1638 l 1,13,-1
 225.280273438 1638 l 1,14,-1
 225.280273438 1412.71972656 l 1,15,-1
 112.639648438 1412.71972656 l 1,12,-1
EndSplineSet
Validated: 526341
EndChar

StartChar: W
Encoding: 87 87 106
Width: 2048
VWidth: 0
LayerCount: 2
Fore
SplineSet
0 -410 m 1,0,-1
 0 -70.0322265625 l 1,1,-1
 339.967773438 -70.0322265625 l 1,2,-1
 339.967773438 -410 l 1,3,-1
 0 -410 l 1,0,-1
0 609.904296875 m 1,4,-1
 0 949.872070312 l 1,5,-1
 339.967773438 949.872070312 l 1,6,-1
 339.967773438 609.904296875 l 1,7,-1
 0 609.904296875 l 1,4,-1
0 949.872070312 m 1,8,-1
 0 1289.83984375 l 1,9,-1
 339.967773438 1289.83984375 l 1,10,-1
 339.967773438 949.872070312 l 1,11,-1
 0 949.872070312 l 1,8,-1
112.639648438 1412.71972656 m 1,12,-1
 112.639648438 1638 l 1,13,-1
 225.280273438 1638 l 1,14,-1
 225.280273438 1412.71972656 l 1,15,-1
 112.639648438 1412.71972656 l 1,12,-1
EndSplineSet
Validated: 526341
EndChar

StartChar: X
Encoding: 88 88 107
Width: 2048
VWidth: 0
LayerCount: 2
Fore
SplineSet
0 -410 m 1,0,-1
 0 -70.0322265625 l 1,1,-1
 339.967773438 -70.0322265625 l 1,2,-1
 339.967773438 -410 l 1,3,-1
 0 -410 l 1,0,-1
0 269.935546875 m 1,4,-1
 0 609.904296875 l 1,5,-1
 339.967773438 609.904296875 l 1,6,-1
 339.967773438 269.935546875 l 1,7,-1
 0 269.935546875 l 1,4,-1
0 949.872070312 m 1,8,-1
 0 1289.83984375 l 1,9,-1
 339.967773438 1289.83984375 l 1,10,-1
 339.967773438 949.872070312 l 1,11,-1
 0 949.872070312 l 1,8,-1
112.639648438 1412.71972656 m 1,12,-1
 112.639648438 1638 l 1,13,-1
 225.280273438 1638 l 1,14,-1
 225.280273438 1412.71972656 l 1,15,-1
 112.639648438 1412.71972656 l 1,12,-1
EndSplineSet
Validated: 526337
EndChar

StartChar: Y
Encoding: 89 89 108
Width: 2048
VWidth: 0
LayerCount: 2
Fore
SplineSet
0 -410 m 1,0,-1
 0 -70.0322265625 l 1,1,-1
 339.967773438 -70.0322265625 l 1,2,-1
 339.967773438 -410 l 1,3,-1
 0 -410 l 1,0,-1
0 -70.0322265625 m 1,4,-1
 0 269.935546875 l 1,5,-1
 339.967773438 269.935546875 l 1,6,-1
 339.967773438 -70.0322265625 l 1,7,-1
 0 -70.0322265625 l 1,4,-1
0 949.872070312 m 1,8,-1
 0 1289.83984375 l 1,9,-1
 339.967773438 1289.83984375 l 1,10,-1
 339.967773438 949.872070312 l 1,11,-1
 0 949.872070312 l 1,8,-1
112.639648438 1412.71972656 m 1,12,-1
 112.639648438 1638 l 1,13,-1
 225.280273438 1638 l 1,14,-1
 225.280273438 1412.71972656 l 1,15,-1
 112.639648438 1412.71972656 l 1,12,-1
EndSplineSet
Validated: 526341
EndChar

StartChar: Z
Encoding: 90 90 109
Width: 2048
VWidth: 0
LayerCount: 2
Fore
SplineSet
0 -410 m 1,0,-1
 0 -70.0322265625 l 1,1,-1
 339.967773438 -70.0322265625 l 1,2,-1
 339.967773438 -410 l 1,3,-1
 0 -410 l 1,0,-1
0 -70.0322265625 m 1,4,-1
 0 269.935546875 l 1,5,-1
 339.967773438 269.935546875 l 1,6,-1
 339.967773438 -70.0322265625 l 1,7,-1
 0 -70.0322265625 l 1,4,-1
0 609.904296875 m 1,8,-1
 0 949.872070312 l 1,9,-1
 339.967773438 949.872070312 l 1,10,-1
 339.967773438 609.904296875 l 1,11,-1
 0 609.904296875 l 1,8,-1
0 949.872070312 m 1,12,-1
 0 1289.83984375 l 1,13,-1
 339.967773438 1289.83984375 l 1,14,-1
 339.967773438 949.872070312 l 1,15,-1
 0 949.872070312 l 1,12,-1
112.639648438 1412.71972656 m 1,16,-1
 112.639648438 1638 l 1,17,-1
 225.280273438 1638 l 1,18,-1
 225.280273438 1412.71972656 l 1,19,-1
 112.639648438 1412.71972656 l 1,16,-1
EndSplineSet
Validated: 526341
EndChar

StartChar: a
Encoding: 97 97 110
Width: 2048
VWidth: 0
LayerCount: 2
Fore
SplineSet
0 949.872070312 m 1,0,-1
 0 1289.83984375 l 1,1,-1
 339.967773438 1289.83984375 l 1,2,-1
 339.967773438 949.872070312 l 1,3,-1
 0 949.872070312 l 1,0,-1
EndSplineSet
Validated: 524289
EndChar

StartChar: b
Encoding: 98 98 111
Width: 2048
VWidth: 0
LayerCount: 2
Fore
SplineSet
0 609.904296875 m 1,0,-1
 0 949.872070312 l 1,1,-1
 339.967773438 949.872070312 l 1,2,-1
 339.967773438 609.904296875 l 1,3,-1
 0 609.904296875 l 1,0,-1
EndSplineSet
Validated: 524289
EndChar

StartChar: c
Encoding: 99 99 112
Width: 2048
VWidth: 0
LayerCount: 2
Fore
SplineSet
0 269.935546875 m 1,0,-1
 0 609.904296875 l 1,1,-1
 339.967773438 609.904296875 l 1,2,-1
 339.967773438 269.935546875 l 1,3,-1
 0 269.935546875 l 1,0,-1
EndSplineSet
Validated: 524289
EndChar

StartChar: d
Encoding: 100 100 113
Width: 2048
VWidth: 0
LayerCount: 2
Fore
SplineSet
0 -70.0322265625 m 1,0,-1
 0 269.935546875 l 1,1,-1
 339.967773438 269.935546875 l 1,2,-1
 339.967773438 -70.0322265625 l 1,3,-1
 0 -70.0322265625 l 1,0,-1
EndSplineSet
Validated: 524289
EndChar

StartChar: e
Encoding: 101 101 114
Width: 2048
VWidth: 0
LayerCount: 2
Fore
SplineSet
0 -410 m 1,0,-1
 0 -70.0322265625 l 1,1,-1
 339.967773438 -70.0322265625 l 1,2,-1
 339.967773438 -410 l 1,3,-1
 0 -410 l 1,0,-1
EndSplineSet
Validated: 524289
EndChar

StartChar: f
Encoding: 102 102 115
Width: 2048
VWidth: 0
LayerCount: 2
Fore
SplineSet
0 609.904296875 m 1,0,-1
 0 949.872070312 l 1,1,-1
 339.967773438 949.872070312 l 1,2,-1
 339.967773438 609.904296875 l 1,3,-1
 0 609.904296875 l 1,0,-1
0 949.872070312 m 1,4,-1
 0 1289.83984375 l 1,5,-1
 339.967773438 1289.83984375 l 1,6,-1
 339.967773438 949.872070312 l 1,7,-1
 0 949.872070312 l 1,4,-1
EndSplineSet
Validated: 524293
EndChar

StartChar: g
Encoding: 103 103 116
Width: 2048
VWidth: 0
LayerCount: 2
Fore
SplineSet
0 269.935546875 m 1,0,-1
 0 609.904296875 l 1,1,-1
 339.967773438 609.904296875 l 1,2,-1
 339.967773438 269.935546875 l 1,3,-1
 0 269.935546875 l 1,0,-1
0 609.904296875 m 1,4,-1
 0 949.872070312 l 1,5,-1
 339.967773438 949.872070312 l 1,6,-1
 339.967773438 609.904296875 l 1,7,-1
 0 609.904296875 l 1,4,-1
EndSplineSet
Validated: 524293
EndChar

StartChar: h
Encoding: 104 104 117
Width: 2048
VWidth: 0
LayerCount: 2
Fore
SplineSet
0 -70.0322265625 m 1,0,-1
 0 269.935546875 l 1,1,-1
 339.967773438 269.935546875 l 1,2,-1
 339.967773438 -70.0322265625 l 1,3,-1
 0 -70.0322265625 l 1,0,-1
0 269.935546875 m 1,4,-1
 0 609.904296875 l 1,5,-1
 339.967773438 609.904296875 l 1,6,-1
 339.967773438 269.935546875 l 1,7,-1
 0 269.935546875 l 1,4,-1
EndSplineSet
Validated: 524293
EndChar

StartChar: i
Encoding: 105 105 118
Width: 2048
VWidth: 0
LayerCount: 2
Fore
SplineSet
0 -410 m 1,0,-1
 0 -70.0322265625 l 1,1,-1
 339.967773438 -70.0322265625 l 1,2,-1
 339.967773438 -410 l 1,3,-1
 0 -410 l 1,0,-1
0 -70.0322265625 m 1,4,-1
 0 269.935546875 l 1,5,-1
 339.967773438 269.935546875 l 1,6,-1
 339.967773438 -70.0322265625 l 1,7,-1
 0 -70.0322265625 l 1,4,-1
EndSplineSet
Validated: 524293
EndChar

StartChar: j
Encoding: 106 106 119
Width: 2048
VWidth: 0
LayerCount: 2
Fore
SplineSet
0 269.935546875 m 1,0,-1
 0 609.904296875 l 1,1,-1
 339.967773438 609.904296875 l 1,2,-1
 339.967773438 269.935546875 l 1,3,-1
 0 269.935546875 l 1,0,-1
0 949.872070312 m 1,4,-1
 0 1289.83984375 l 1,5,-1
 339.967773438 1289.83984375 l 1,6,-1
 339.967773438 949.872070312 l 1,7,-1
 0 949.872070312 l 1,4,-1
EndSplineSet
Validated: 524289
EndChar

StartChar: k
Encoding: 107 107 120
Width: 2048
VWidth: 0
LayerCount: 2
Fore
SplineSet
0 -70.0322265625 m 1,0,-1
 0 269.935546875 l 1,1,-1
 339.967773438 269.935546875 l 1,2,-1
 339.967773438 -70.0322265625 l 1,3,-1
 0 -70.0322265625 l 1,0,-1
0 609.904296875 m 1,4,-1
 0 949.872070312 l 1,5,-1
 339.967773438 949.872070312 l 1,6,-1
 339.967773438 609.904296875 l 1,7,-1
 0 609.904296875 l 1,4,-1
EndSplineSet
Validated: 524289
EndChar

StartChar: l
Encoding: 108 108 121
Width: 2048
VWidth: 0
LayerCount: 2
Fore
SplineSet
0 -410 m 1,0,-1
 0 -70.0322265625 l 1,1,-1
 339.967773438 -70.0322265625 l 1,2,-1
 339.967773438 -410 l 1,3,-1
 0 -410 l 1,0,-1
0 269.935546875 m 1,4,-1
 0 609.904296875 l 1,5,-1
 339.967773438 609.904296875 l 1,6,-1
 339.967773438 269.935546875 l 1,7,-1
 0 269.935546875 l 1,4,-1
EndSplineSet
Validated: 524289
EndChar

StartChar: m
Encoding: 109 109 122
Width: 2048
VWidth: 0
LayerCount: 2
Fore
SplineSet
0 -70.0322265625 m 1,0,-1
 0 269.935546875 l 1,1,-1
 339.967773438 269.935546875 l 1,2,-1
 339.967773438 -70.0322265625 l 1,3,-1
 0 -70.0322265625 l 1,0,-1
0 949.872070312 m 1,4,-1
 0 1289.83984375 l 1,5,-1
 339.967773438 1289.83984375 l 1,6,-1
 339.967773438 949.872070312 l 1,7,-1
 0 949.872070312 l 1,4,-1
EndSplineSet
Validated: 524289
EndChar

StartChar: n
Encoding: 110 110 123
Width: 2048
VWidth: 0
LayerCount: 2
Fore
SplineSet
0 -410 m 1,0,-1
 0 -70.0322265625 l 1,1,-1
 339.967773438 -70.0322265625 l 1,2,-1
 339.967773438 -410 l 1,3,-1
 0 -410 l 1,0,-1
0 609.904296875 m 1,4,-1
 0 949.872070312 l 1,5,-1
 339.967773438 949.872070312 l 1,6,-1
 339.967773438 609.904296875 l 1,7,-1
 0 609.904296875 l 1,4,-1
EndSplineSet
Validated: 524289
EndChar

StartChar: o
Encoding: 111 111 124
Width: 2048
VWidth: 0
LayerCount: 2
Fore
SplineSet
0 -410 m 1,0,-1
 0 -70.0322265625 l 1,1,-1
 339.967773438 -70.0322265625 l 1,2,-1
 339.967773438 -410 l 1,3,-1
 0 -410 l 1,0,-1
0 949.872070312 m 1,4,-1
 0 1289.83984375 l 1,5,-1
 339.967773438 1289.83984375 l 1,6,-1
 339.967773438 949.872070312 l 1,7,-1
 0 949.872070312 l 1,4,-1
EndSplineSet
Validated: 524289
EndChar

StartChar: p
Encoding: 112 112 125
Width: 2048
VWidth: 0
LayerCount: 2
Fore
SplineSet
0 269.935546875 m 1,0,-1
 0 609.904296875 l 1,1,-1
 339.967773438 609.904296875 l 1,2,-1
 339.967773438 269.935546875 l 1,3,-1
 0 269.935546875 l 1,0,-1
0 609.904296875 m 1,4,-1
 0 949.872070312 l 1,5,-1
 339.967773438 949.872070312 l 1,6,-1
 339.967773438 609.904296875 l 1,7,-1
 0 609.904296875 l 1,4,-1
0 949.872070312 m 1,8,-1
 0 1289.83984375 l 1,9,-1
 339.967773438 1289.83984375 l 1,10,-1
 339.967773438 949.872070312 l 1,11,-1
 0 949.872070312 l 1,8,-1
EndSplineSet
Validated: 526341
EndChar

StartChar: q
Encoding: 113 113 126
Width: 2048
VWidth: 0
LayerCount: 2
Fore
SplineSet
0 -70.0322265625 m 1,0,-1
 0 269.935546875 l 1,1,-1
 339.967773438 269.935546875 l 1,2,-1
 339.967773438 -70.0322265625 l 1,3,-1
 0 -70.0322265625 l 1,0,-1
0 609.904296875 m 1,4,-1
 0 949.872070312 l 1,5,-1
 339.967773438 949.872070312 l 1,6,-1
 339.967773438 609.904296875 l 1,7,-1
 0 609.904296875 l 1,4,-1
0 949.872070312 m 1,8,-1
 0 1289.83984375 l 1,9,-1
 339.967773438 1289.83984375 l 1,10,-1
 339.967773438 949.872070312 l 1,11,-1
 0 949.872070312 l 1,8,-1
EndSplineSet
Validated: 526341
EndChar

StartChar: r
Encoding: 114 114 127
Width: 2048
VWidth: 0
LayerCount: 2
Fore
SplineSet
0 -70.0322265625 m 1,0,-1
 0 269.935546875 l 1,1,-1
 339.967773438 269.935546875 l 1,2,-1
 339.967773438 -70.0322265625 l 1,3,-1
 0 -70.0322265625 l 1,0,-1
0 269.935546875 m 1,4,-1
 0 609.904296875 l 1,5,-1
 339.967773438 609.904296875 l 1,6,-1
 339.967773438 269.935546875 l 1,7,-1
 0 269.935546875 l 1,4,-1
0 949.872070312 m 1,8,-1
 0 1289.83984375 l 1,9,-1
 339.967773438 1289.83984375 l 1,10,-1
 339.967773438 949.872070312 l 1,11,-1
 0 949.872070312 l 1,8,-1
EndSplineSet
Validated: 526341
EndChar

StartChar: s
Encoding: 115 115 128
Width: 2048
VWidth: 0
LayerCount: 2
Fore
SplineSet
0 -70.0322265625 m 1,0,-1
 0 269.935546875 l 1,1,-1
 339.967773438 269.935546875 l 1,2,-1
 339.967773438 -70.0322265625 l 1,3,-1
 0 -70.0322265625 l 1,0,-1
0 269.935546875 m 1,4,-1
 0 609.904296875 l 1,5,-1
 339.967773438 609.904296875 l 1,6,-1
 339.967773438 269.935546875 l 1,7,-1
 0 269.935546875 l 1,4,-1
0 609.904296875 m 1,8,-1
 0 949.872070312 l 1,9,-1
 339.967773438 949.872070312 l 1,10,-1
 339.967773438 609.904296875 l 1,11,-1
 0 609.904296875 l 1,8,-1
EndSplineSet
Validated: 526341
EndChar

StartChar: t
Encoding: 116 116 129
Width: 2048
VWidth: 0
LayerCount: 2
Fore
SplineSet
0 -410 m 1,0,-1
 0 -70.0322265625 l 1,1,-1
 339.967773438 -70.0322265625 l 1,2,-1
 339.967773438 -410 l 1,3,-1
 0 -410 l 1,0,-1
0 269.935546875 m 1,4,-1
 0 609.904296875 l 1,5,-1
 339.967773438 609.904296875 l 1,6,-1
 339.967773438 269.935546875 l 1,7,-1
 0 269.935546875 l 1,4,-1
0 609.904296875 m 1,8,-1
 0 949.872070312 l 1,9,-1
 339.967773438 949.872070312 l 1,10,-1
 339.967773438 609.904296875 l 1,11,-1
 0 609.904296875 l 1,8,-1
EndSplineSet
Validated: 526341
EndChar

StartChar: u
Encoding: 117 117 130
Width: 2048
VWidth: 0
LayerCount: 2
Fore
SplineSet
0 -410 m 1,0,-1
 0 -70.0322265625 l 1,1,-1
 339.967773438 -70.0322265625 l 1,2,-1
 339.967773438 -410 l 1,3,-1
 0 -410 l 1,0,-1
0 -70.0322265625 m 1,4,-1
 0 269.935546875 l 1,5,-1
 339.967773438 269.935546875 l 1,6,-1
 339.967773438 -70.0322265625 l 1,7,-1
 0 -70.0322265625 l 1,4,-1
0 609.904296875 m 1,8,-1
 0 949.872070312 l 1,9,-1
 339.967773438 949.872070312 l 1,10,-1
 339.967773438 609.904296875 l 1,11,-1
 0 609.904296875 l 1,8,-1
EndSplineSet
Validated: 526341
EndChar

StartChar: v
Encoding: 118 118 131
Width: 2048
VWidth: 0
LayerCount: 2
Fore
SplineSet
0 -410 m 1,0,-1
 0 -70.0322265625 l 1,1,-1
 339.967773438 -70.0322265625 l 1,2,-1
 339.967773438 -410 l 1,3,-1
 0 -410 l 1,0,-1
0 -70.0322265625 m 1,4,-1
 0 269.935546875 l 1,5,-1
 339.967773438 269.935546875 l 1,6,-1
 339.967773438 -70.0322265625 l 1,7,-1
 0 -70.0322265625 l 1,4,-1
0 269.935546875 m 1,8,-1
 0 609.904296875 l 1,9,-1
 339.967773438 609.904296875 l 1,10,-1
 339.967773438 269.935546875 l 1,11,-1
 0 269.935546875 l 1,8,-1
EndSplineSet
Validated: 526341
EndChar

StartChar: w
Encoding: 119 119 132
Width: 2048
VWidth: 0
LayerCount: 2
Fore
SplineSet
0 -410 m 1,0,-1
 0 -70.0322265625 l 1,1,-1
 339.967773438 -70.0322265625 l 1,2,-1
 339.967773438 -410 l 1,3,-1
 0 -410 l 1,0,-1
0 609.904296875 m 1,4,-1
 0 949.872070312 l 1,5,-1
 339.967773438 949.872070312 l 1,6,-1
 339.967773438 609.904296875 l 1,7,-1
 0 609.904296875 l 1,4,-1
0 949.872070312 m 1,8,-1
 0 1289.83984375 l 1,9,-1
 339.967773438 1289.83984375 l 1,10,-1
 339.967773438 949.872070312 l 1,11,-1
 0 949.872070312 l 1,8,-1
EndSplineSet
Validated: 526341
EndChar

StartChar: x
Encoding: 120 120 133
Width: 2048
VWidth: 0
LayerCount: 2
Fore
SplineSet
0 -410 m 1,0,-1
 0 -70.0322265625 l 1,1,-1
 339.967773438 -70.0322265625 l 1,2,-1
 339.967773438 -410 l 1,3,-1
 0 -410 l 1,0,-1
0 269.935546875 m 1,4,-1
 0 609.904296875 l 1,5,-1
 339.967773438 609.904296875 l 1,6,-1
 339.967773438 269.935546875 l 1,7,-1
 0 269.935546875 l 1,4,-1
0 949.872070312 m 1,8,-1
 0 1289.83984375 l 1,9,-1
 339.967773438 1289.83984375 l 1,10,-1
 339.967773438 949.872070312 l 1,11,-1
 0 949.872070312 l 1,8,-1
EndSplineSet
Validated: 526337
EndChar

StartChar: y
Encoding: 121 121 134
Width: 2048
VWidth: 0
LayerCount: 2
Fore
SplineSet
0 -410 m 1,0,-1
 0 -70.0322265625 l 1,1,-1
 339.967773438 -70.0322265625 l 1,2,-1
 339.967773438 -410 l 1,3,-1
 0 -410 l 1,0,-1
0 -70.0322265625 m 1,4,-1
 0 269.935546875 l 1,5,-1
 339.967773438 269.935546875 l 1,6,-1
 339.967773438 -70.0322265625 l 1,7,-1
 0 -70.0322265625 l 1,4,-1
0 949.872070312 m 1,8,-1
 0 1289.83984375 l 1,9,-1
 339.967773438 1289.83984375 l 1,10,-1
 339.967773438 949.872070312 l 1,11,-1
 0 949.872070312 l 1,8,-1
EndSplineSet
Validated: 526341
EndChar

StartChar: z
Encoding: 122 122 135
Width: 2048
VWidth: 0
LayerCount: 2
Fore
SplineSet
0 -410 m 1,0,-1
 0 -70.0322265625 l 1,1,-1
 339.967773438 -70.0322265625 l 1,2,-1
 339.967773438 -410 l 1,3,-1
 0 -410 l 1,0,-1
0 -70.0322265625 m 1,4,-1
 0 269.935546875 l 1,5,-1
 339.967773438 269.935546875 l 1,6,-1
 339.967773438 -70.0322265625 l 1,7,-1
 0 -70.0322265625 l 1,4,-1
0 609.904296875 m 1,8,-1
 0 949.872070312 l 1,9,-1
 339.967773438 949.872070312 l 1,10,-1
 339.967773438 609.904296875 l 1,11,-1
 0 609.904296875 l 1,8,-1
0 949.872070312 m 1,12,-1
 0 1289.83984375 l 1,13,-1
 339.967773438 1289.83984375 l 1,14,-1
 339.967773438 949.872070312 l 1,15,-1
 0 949.872070312 l 1,12,-1
EndSplineSet
Validated: 526341
EndChar

StartChar: ae
Encoding: 230 230 136
Width: 2048
VWidth: 0
LayerCount: 2
Fore
SplineSet
0 -410 m 1,0,-1
 0 -70.0322265625 l 1,1,-1
 339.967773438 -70.0322265625 l 1,2,-1
 339.967773438 -410 l 1,3,-1
 0 -410 l 1,0,-1
0 -70.0322265625 m 1,4,-1
 0 269.935546875 l 1,5,-1
 339.967773438 269.935546875 l 1,6,-1
 339.967773438 -70.0322265625 l 1,7,-1
 0 -70.0322265625 l 1,4,-1
0 269.935546875 m 1,8,-1
 0 609.904296875 l 1,9,-1
 339.967773438 609.904296875 l 1,10,-1
 339.967773438 269.935546875 l 1,11,-1
 0 269.935546875 l 1,8,-1
0 949.872070312 m 1,12,-1
 0 1289.83984375 l 1,13,-1
 339.967773438 1289.83984375 l 1,14,-1
 339.967773438 949.872070312 l 1,15,-1
 0 949.872070312 l 1,12,-1
EndSplineSet
Validated: 526341
EndChar

StartChar: AE
Encoding: 198 198 137
Width: 2048
VWidth: 0
LayerCount: 2
Fore
SplineSet
0 -410 m 1,0,-1
 0 -70.0322265625 l 1,1,-1
 339.967773438 -70.0322265625 l 1,2,-1
 339.967773438 -410 l 1,3,-1
 0 -410 l 1,0,-1
0 269.935546875 m 1,4,-1
 0 609.904296875 l 1,5,-1
 339.967773438 609.904296875 l 1,6,-1
 339.967773438 269.935546875 l 1,7,-1
 0 269.935546875 l 1,4,-1
0 609.904296875 m 1,8,-1
 0 949.872070312 l 1,9,-1
 339.967773438 949.872070312 l 1,10,-1
 339.967773438 609.904296875 l 1,11,-1
 0 609.904296875 l 1,8,-1
0 949.872070312 m 1,12,-1
 0 1289.83984375 l 1,13,-1
 339.967773438 1289.83984375 l 1,14,-1
 339.967773438 949.872070312 l 1,15,-1
 0 949.872070312 l 1,12,-1
EndSplineSet
Validated: 526341
EndChar

StartChar: O_slash
Encoding: 216 216 138
Width: 2048
VWidth: 0
LayerCount: 2
Fore
SplineSet
0 -70.0322265625 m 1,0,-1
 0 269.935546875 l 1,1,-1
 339.967773438 269.935546875 l 1,2,-1
 339.967773438 -70.0322265625 l 1,3,-1
 0 -70.0322265625 l 1,0,-1
0 269.935546875 m 1,4,-1
 0 609.904296875 l 1,5,-1
 339.967773438 609.904296875 l 1,6,-1
 339.967773438 269.935546875 l 1,7,-1
 0 269.935546875 l 1,4,-1
0 609.904296875 m 1,8,-1
 0 949.872070312 l 1,9,-1
 339.967773438 949.872070312 l 1,10,-1
 339.967773438 609.904296875 l 1,11,-1
 0 609.904296875 l 1,8,-1
0 949.872070312 m 1,12,-1
 0 1289.83984375 l 1,13,-1
 339.967773438 1289.83984375 l 1,14,-1
 339.967773438 949.872070312 l 1,15,-1
 0 949.872070312 l 1,12,-1
EndSplineSet
Validated: 526341
EndChar

StartChar: o_slash
Encoding: 248 248 139
Width: 2048
VWidth: 0
LayerCount: 2
Fore
SplineSet
0 -410 m 1,0,-1
 0 -70.0322265625 l 1,1,-1
 339.967773438 -70.0322265625 l 1,2,-1
 339.967773438 -410 l 1,3,-1
 0 -410 l 1,0,-1
0 -70.0322265625 m 1,4,-1
 0 269.935546875 l 1,5,-1
 339.967773438 269.935546875 l 1,6,-1
 339.967773438 -70.0322265625 l 1,7,-1
 0 -70.0322265625 l 1,4,-1
0 269.935546875 m 1,8,-1
 0 609.904296875 l 1,9,-1
 339.967773438 609.904296875 l 1,10,-1
 339.967773438 269.935546875 l 1,11,-1
 0 269.935546875 l 1,8,-1
0 609.904296875 m 1,12,-1
 0 949.872070312 l 1,13,-1
 339.967773438 949.872070312 l 1,14,-1
 339.967773438 609.904296875 l 1,15,-1
 0 609.904296875 l 1,12,-1
EndSplineSet
Validated: 526341
EndChar

StartChar: eszett
Encoding: 223 223 140
Width: 2048
VWidth: 0
LayerCount: 2
Fore
SplineSet
0 -410 m 1,0,-1
 0 -70.0322265625 l 1,1,-1
 339.967773438 -70.0322265625 l 1,2,-1
 339.967773438 -410 l 1,3,-1
 0 -410 l 1,0,-1
0 -70.0322265625 m 1,4,-1
 0 269.935546875 l 1,5,-1
 339.967773438 269.935546875 l 1,6,-1
 339.967773438 -70.0322265625 l 1,7,-1
 0 -70.0322265625 l 1,4,-1
0 269.935546875 m 1,8,-1
 0 609.904296875 l 1,9,-1
 339.967773438 609.904296875 l 1,10,-1
 339.967773438 269.935546875 l 1,11,-1
 0 269.935546875 l 1,8,-1
0 609.904296875 m 1,12,-1
 0 949.872070312 l 1,13,-1
 339.967773438 949.872070312 l 1,14,-1
 339.967773438 609.904296875 l 1,15,-1
 0 609.904296875 l 1,12,-1
0 949.872070312 m 1,16,-1
 0 1289.83984375 l 1,17,-1
 339.967773438 1289.83984375 l 1,18,-1
 339.967773438 949.872070312 l 1,19,-1
 0 949.872070312 l 1,16,-1
EndSplineSet
Validated: 526341
EndChar

StartChar: Eszett
Encoding: 7838 7838 141
Width: 2048
VWidth: 0
LayerCount: 2
Fore
SplineSet
0 -410 m 1,0,-1
 0 -70.0322265625 l 1,1,-1
 339.967773438 -70.0322265625 l 1,2,-1
 339.967773438 -410 l 1,3,-1
 0 -410 l 1,0,-1
0 -70.0322265625 m 1,4,-1
 0 269.935546875 l 1,5,-1
 339.967773438 269.935546875 l 1,6,-1
 339.967773438 -70.0322265625 l 1,7,-1
 0 -70.0322265625 l 1,4,-1
0 269.935546875 m 1,8,-1
 0 609.904296875 l 1,9,-1
 339.967773438 609.904296875 l 1,10,-1
 339.967773438 269.935546875 l 1,11,-1
 0 269.935546875 l 1,8,-1
0 609.904296875 m 1,12,-1
 0 949.872070312 l 1,13,-1
 339.967773438 949.872070312 l 1,14,-1
 339.967773438 609.904296875 l 1,15,-1
 0 609.904296875 l 1,12,-1
0 949.872070312 m 1,16,-1
 0 1289.83984375 l 1,17,-1
 339.967773438 1289.83984375 l 1,18,-1
 339.967773438 949.872070312 l 1,19,-1
 0 949.872070312 l 1,16,-1
112.639648438 1412.71972656 m 1,20,-1
 112.639648438 1638 l 1,21,-1
 225.280273438 1638 l 1,22,-1
 225.280273438 1412.71972656 l 1,23,-1
 112.639648438 1412.71972656 l 1,20,-1
EndSplineSet
Validated: 526341
EndChar
